<?xml version="1.0" standalone="no"?><!DOCTYPE svg PUBLIC "-//W3C//DTD SVG 1.1//EN" "http://www.w3.org/Graphics/SVG/1.1/DTD/svg11.dtd"><svg t="1642417190856" class="icon" viewBox="0 0 1024 1024" version="1.1" xmlns="http://www.w3.org/2000/svg" p-id="1392" xmlns:xlink="http://www.w3.org/1999/xlink" width="200" height="200"><defs><style type="text/css"></style></defs><path d="M512 512m-436.9 0a436.9 436.9 0 1 0 873.8 0 436.9 436.9 0 1 0-873.8 0Z" fill="#FFFFFF" p-id="1393"></path><path d="M512 958.9c-60.3 0-118.8-11.8-173.9-35.1-53.2-22.5-101-54.7-142-95.8-41-41-73.3-88.8-95.8-142C77 630.8 65.1 572.3 65.1 512s11.8-118.8 35.1-173.9c22.5-53.2 54.7-101 95.8-142 41-41 88.8-73.3 142-95.8C393.2 77 451.7 65.1 512 65.1s118.8 11.8 173.9 35.1c53.2 22.5 101 54.7 142 95.8 41 41 73.3 88.8 95.8 142 23.3 55.1 35.1 113.6 35.1 173.9 0 60.3-11.8 118.8-35.1 173.9-22.5 53.2-54.7 101-95.8 142s-88.8 73.3-142 95.8C630.8 947 572.3 958.9 512 958.9z m0-873.8C276.6 85.1 85.1 276.6 85.1 512c0 235.4 191.5 426.9 426.9 426.9 235.4 0 426.9-191.5 426.9-426.9 0-235.4-191.5-426.9-426.9-426.9z" fill="#983BFF" p-id="1394"></path><path d="M512 943.8c-58.3 0-114.8-11.4-168.1-33.9-51.4-21.8-97.6-52.9-137.3-92.5-39.7-39.7-70.8-85.8-92.5-137.3C91.6 626.8 80.2 570.3 80.2 512s11.4-114.8 33.9-168.1c21.8-51.4 52.9-97.6 92.5-137.3s85.8-70.8 137.3-92.5C397.2 91.6 453.7 80.2 512 80.2s114.8 11.4 168.1 33.9c51.4 21.8 97.6 52.9 137.3 92.5 39.7 39.7 70.8 85.8 92.5 137.3 22.5 53.2 33.9 109.8 33.9 168.1s-11.4 114.8-33.9 168.1c-21.8 51.4-52.9 97.6-92.5 137.3-39.7 39.7-85.8 70.8-137.3 92.5-53.3 22.5-109.8 33.9-168.1 33.9z m0-843.6c-227.1 0-411.8 184.7-411.8 411.8 0 227.1 184.7 411.8 411.8 411.8 227.1 0 411.8-184.7 411.8-411.8 0-227.1-184.7-411.8-411.8-411.8z" fill="#6BAAFF" p-id="1395"></path><path d="M512 926.4c-55.9 0-110.2-11-161.3-32.6C301.3 873 257 843.1 219 805s-67.9-82.4-88.8-131.7C108.5 622.2 97.6 567.9 97.6 512c0-55.9 11-110.2 32.6-161.3C151 301.3 180.9 257 219 219s82.4-67.9 131.7-88.8c51.1-21.6 105.4-32.6 161.3-32.6 55.9 0 110.2 11 161.3 32.6C722.7 151 767 180.9 805 219s67.9 82.4 88.8 131.7c21.6 51.1 32.6 105.4 32.6 161.3 0 55.9-11 110.2-32.6 161.3C873 722.7 843.1 767 805 805s-82.4 67.9-131.7 88.8c-51.1 21.7-105.4 32.6-161.3 32.6z m0-808.8c-217.5 0-394.4 176.9-394.4 394.4 0 217.5 176.9 394.4 394.4 394.4 217.5 0 394.4-176.9 394.4-394.4 0-217.5-176.9-394.4-394.4-394.4z" fill="#5CFFF9" p-id="1396"></path><path d="M512 512m-399.2 0a399.2 399.2 0 1 0 798.4 0 399.2 399.2 0 1 0-798.4 0Z" fill="#5900A3" p-id="1397"></path><path d="M439.211 245.377l10.506-2.501 22.883 96.112-10.507 2.501z" fill="#9A6500" p-id="1398"></path><path d="M175.846 555.295l666.169-150.17 2.199 9.755-666.17 150.17z" fill="#8FE6FF" p-id="1399"></path><path d="M843.1 410l-1.5 0.3c-1.5 0.3-3.1-0.3-4-1.6-55.4-82.3-205-119.1-366.9-82-161.9 37.1-282.9 135.9-293.9 233.4-0.2 1.5-1.3 2.8-2.8 3.1-2 0.5-4.1-0.8-4.5-2.8C146 451 274.5 329 459.1 286.7c184.7-42.3 356.4 10.8 386.7 118.8 0.6 2-0.6 4.1-2.7 4.5z" fill="#FF8099" p-id="1400"></path><path d="M173.3 568.4c-1.6 0-3.3-0.5-4.7-1.4-2-1.3-3.4-3.2-3.9-5.5-11.8-54.8 12.4-114 68.1-166.8C288 342.6 367.9 302.5 458 281.8c90.1-20.6 180.2-19.5 253.8 3.1 74.4 22.9 123.6 65.2 138.8 119.2 0.6 2.3 0.3 4.7-0.9 6.7s-3.2 3.5-5.5 4l-1.5 0.3c-3.5 0.8-7.2-0.7-9.2-3.7-26.4-39.2-76.3-68.9-140.5-83.7-66.8-15.4-143.3-14.1-221.1 3.8-157.2 36-279.2 132.4-290 229.1-0.4 3.6-3.1 6.6-6.6 7.4-0.7 0.4-1.4 0.4-2 0.4z m411.5-291.3c-40.3 0-82.4 4.8-124.5 14.5-88.4 20.3-166.7 59.5-220.5 110.5-50.4 47.7-73.8 100.5-66.6 149.6 8-46.3 40-93.8 91-134.6 54.1-43.3 127.1-77 205.5-95 79.3-18.2 157.3-19.5 225.6-3.8 65.2 15 116.4 45.2 144.7 85.1-15.3-48.9-61.7-87.4-131-108.8-37.8-11.7-79.9-17.5-124.2-17.5zM842 405.2z" fill="#9A6500" p-id="1401"></path><path d="M490.8 322.5l-55.6 12c-8.9 1.9-17.7-3.7-19.8-12.4-2.1-8.8 3.4-17.4 12.3-19.4l55.6-12c8.9-1.9 17.7 3.7 19.8 12.4 2.1 8.9-3.4 17.5-12.3 19.4z" fill="#FFFD72" p-id="1402"></path><path d="M431.7 340.3c-10 0-19.2-6.9-21.5-17-1.3-5.6-0.4-11.4 2.7-16.3s8-8.3 13.7-9.5l55.6-12c11.7-2.5 23.4 4.9 26.2 16.5 1.3 5.6 0.4 11.4-2.7 16.3s-8 8.3-13.7 9.5l-55.6 12c-1.6 0.3-3.1 0.5-4.7 0.5z m55.2-44.5c-0.8 0-1.6 0.1-2.4 0.3l-55.6 12c-2.9 0.6-5.3 2.3-6.9 4.8-1.5 2.4-2 5.3-1.3 8.1 1.4 5.9 7.4 9.7 13.4 8.4l55.6-12c2.9-0.6 5.3-2.3 6.9-4.8 1.5-2.4 2-5.3 1.3-8.1-1.2-5.2-5.9-8.7-11-8.7z" fill="#9A6500" p-id="1403"></path><path d="M791.5 587.9c0 124.5-122.6 177.2-273.8 177.2S244 712.4 244 587.9s122.6-245.4 273.8-245.4 273.7 120.9 273.7 245.4z" fill="#FFCAA8" p-id="1404"></path><path d="M517.8 771.8c-80.6 0-148.7-14.8-197-42.8-26.5-15.4-47-34.7-61-57.4-14.9-24.2-22.5-52.4-22.5-83.7 0-62.4 30-126 82.3-174.3 26-24.1 56-43.1 89.1-56.5 34.9-14.1 71.6-21.3 109.1-21.3s74.2 7.2 109.1 21.3c33 13.4 63 32.4 89.1 56.5 52.3 48.4 82.3 111.9 82.3 174.3 0 31.4-7.6 59.5-22.5 83.7-14 22.7-34.5 42-61 57.4-48.4 28-116.5 42.8-197 42.8z m0-422.6c-142.3 0-267.1 111.5-267.1 238.7 0 56.4 25.9 99.9 76.9 129.5 46.3 26.8 112 41 190.2 41 78.2 0 144-14.2 190.2-41 51-29.6 76.9-73.2 76.9-129.5-0.1-127.1-124.9-238.7-267.1-238.7z" fill="#9A6500" p-id="1405"></path><path d="M738.7 583.6c0 97.7-98.9 117.4-221 117.4s-221-19.6-221-117.4 98.9-177 221-177 221 79.3 221 177z" fill="#FFF8DE" p-id="1406"></path><path d="M436 625.6c0 9.8-17.4 12.6-38.8 12.6s-38.8-2.7-38.8-12.6 17.4-14.7 38.8-14.7 38.8 4.8 38.8 14.7zM579.7 625.6c0 9.8 17.4 12.6 38.8 12.6s38.8-2.7 38.8-12.6-17.4-14.7-38.8-14.7-38.8 4.8-38.8 14.7z" fill="#FF7669" p-id="1407"></path><path d="M391.6 570.2a22.2 30.2 0 1 0 44.4 0 22.2 30.2 0 1 0-44.4 0Z" fill="#201600" p-id="1408"></path><path d="M579.7 570.2a22.2 30.2 0 1 0 44.4 0 22.2 30.2 0 1 0-44.4 0Z" fill="#201600" p-id="1409"></path><path d="M530.6 582.5c0 6.5-10.8 16.1-24.1 16.1s-24.1-9.6-24.1-16.1 10.8-7.9 24.1-7.9 24.1 1.4 24.1 7.9z" fill="#593E00" p-id="1410"></path><path d="M498.1 630.2a8.4 13.5 0 1 0 16.8 0 8.4 13.5 0 1 0-16.8 0Z" fill="#FF5F49" p-id="1411"></path><path d="M477 798.4l3-18.6c0.4-2.2-0.4-4.5-2-6.1l-13.7-13c-4.1-3.9-1.9-11 3.7-11.9l18.6-3c2.2-0.3 4.2-1.7 5.1-3.8l8.1-17c2.5-5.2 9.8-5.3 12.4-0.1l8.6 16.8c1 2 3 3.4 5.3 3.8l18.7 2.4c5.7 0.7 8 7.7 4 11.7l-13.4 13.3c-1.6 1.6-2.3 3.9-1.9 6.2l3.4 18.6c1 5.6-4.8 10-9.9 7.4l-16.8-8.6c-2-1.1-4.5-1-6.4 0.1l-16.6 8.9c-5.1 2.8-11.1-1.4-10.2-7.1z" fill="#FFFEBB" p-id="1412"></path><path d="M483.8 811.6c-2.4 0-4.8-0.7-6.9-2.1-3.8-2.7-5.8-7.2-5.1-11.9v-0.1l3-18.6c0.1-0.5-0.1-1.1-0.5-1.4l-13.7-13c-3.4-3.2-4.6-8-3.2-12.4 1.4-4.5 5.1-7.7 9.7-8.4l18.7-3c0.5-0.1 0.9-0.4 1.1-0.8l8.1-17.1c2-4.3 6.2-6.9 11-6.9 4.7 0 8.8 2.6 10.9 6.8l8.5 16.7c0.2 0.5 0.8 0.8 1.4 1l18.6 2.4c4.6 0.6 8.4 3.7 9.9 8.2 1.5 4.4 0.4 9.2-2.9 12.5L539 776.6c-0.2 0.2-0.6 0.8-0.5 1.5l3.4 18.6c0.8 4.6-1 9.2-4.7 12-3.7 2.8-8.6 3.2-12.7 1.1l-16.8-8.6c-0.5-0.3-1-0.3-1.4 0l-0.1 0.1-16.6 8.9c-1.8 0.9-3.8 1.4-5.8 1.4z m-1.6-12.4c-0.1 0.9 0.4 1.4 0.7 1.7 0.4 0.3 1 0.5 1.7 0.1l16.6-8.9c3.5-2 7.8-2 11.4-0.1l16.7 8.6c0.7 0.4 1.3 0.1 1.7-0.1 0.3-0.2 0.8-0.8 0.7-1.7l-3.4-18.6c-0.7-3.8 0.5-7.8 3.3-10.7l0.1-0.1 13.4-13.3c0.6-0.6 0.5-1.3 0.4-1.7-0.1-0.4-0.5-1-1.3-1.1l-18.8-2.5c-3.9-0.6-7.4-3.1-9.1-6.6l-8.6-16.8c-0.3-0.7-0.8-1-1.5-1-0.4 0-1.1 0.1-1.5 1l-8.1 17c-1.7 3.6-5.1 6.2-9.1 6.8l-18.6 3c-0.9 0.1-1.2 0.8-1.3 1.2-0.1 0.4-0.2 1.1 0.4 1.7l13.7 13c2.9 2.8 4.3 6.8 3.6 10.7l-3.1 18.4z" fill="#9A6500" p-id="1413"></path><path d="M402.9 227.8l24.1-40.9 36 21.2-0.1 0.1 5.4 3.1c10 5.7 13.5 18.4 7.8 28.5-5.7 10-18.4 13.5-28.5 7.8l-6-3.4-2.8 4.8c-2.4 4.1-5.9 7-10 8.7-5.8 2.4-12.7 2.2-18.6-1.3-9.8-5.9-13.1-18.7-7.3-28.6z" fill="#FF8099" p-id="1414"></path><path d="M420.9 264.3c-4.5 0-9-1.2-13.1-3.6-12.3-7.3-16.4-23.2-9.2-35.5l26.6-45.2 44.4 26.1v0.1l1.3 0.7c12.4 7 16.8 22.9 9.7 35.3-7 12.4-22.9 16.8-35.3 9.7l-1.7-1-0.3 0.5c-2.9 4.9-7.2 8.7-12.4 10.8-3.3 1.4-6.7 2.1-10 2.1z m-13.7-34c-4.4 7.6-1.9 17.3 5.6 21.8 4.3 2.5 9.5 2.9 14.1 1 3.2-1.3 5.8-3.6 7.6-6.6l5.3-9 10.3 5.8c7.6 4.3 17.3 1.6 21.7-6 4.3-7.6 1.6-17.3-6-21.7l-9.6-5.5 0.1-0.2-27.6-16.2-21.5 36.6z" fill="#9A6500" p-id="1415"></path><path d="M735.3 439.8c0 7.4-97 25.8-216.6 25.8S302 447.3 302 439.8s96.1-23.5 215.7-23.5 217.6 16.1 217.6 23.5z" fill="#FF8099" p-id="1416"></path><path d="M518.7 470.6c-71.1 0-126.9-6.4-153.9-10.1-18.9-2.7-35.2-5.6-47-8.6-15.6-3.9-20.8-7-20.8-12 0-5.2 5-8 20.8-11.7 11.6-2.7 27.7-5.4 46.6-7.8 26.5-3.4 81.6-9 153.4-9 71.8 0 127.5 5.6 154.3 9 19.2 2.4 35.5 5.1 47.3 7.8 15.9 3.7 21.1 6.5 21.1 11.7 0 5.1-5.3 8.1-20.8 12-11.8 3-28 6-47 8.6-27.1 3.8-82.9 10.1-154 10.1z m-206.4-30.7c22.8 7.2 102 20.7 206.4 20.7 104.2 0 183.4-13.4 206.3-20.6-9.4-2.8-29-6.7-60.7-10.5-44.5-5.2-96.5-8.1-146.5-8.1-49.9 0-101.6 2.9-145.6 8.1-31.3 3.7-50.6 7.7-59.9 10.4z" fill="#9A6500" p-id="1417"></path><path d="M743.997912 441.704403a14.2 33.1 79.113 1 0 65.008506-12.503369 14.2 33.1 79.113 1 0-65.008506 12.503369Z" fill="#FF8099" p-id="1418"></path><path d="M765.5 455.8c-13.3 0-24.7-3.9-26.5-13.1-0.6-3.4-0.2-10 9.8-16.8 6.2-4.2 14.7-7.5 24.1-9.3 9.3-1.8 18.5-1.9 25.8-0.3 11.8 2.6 14.6 8.6 15.3 12 0.6 3.4 0.2 10-9.8 16.8-6.2 4.2-14.7 7.5-24.1 9.3-4.9 0.9-9.9 1.4-14.6 1.4z m21.9-30.5c-4 0-8.3 0.4-12.6 1.2-7.9 1.5-15.3 4.3-20.4 7.7-4.4 3-5.7 5.5-5.5 6.5 0.5 2.7 11.1 7.2 29.3 3.7 7.9-1.5 15.3-4.3 20.4-7.7 4.4-3 5.7-5.5 5.5-6.5-0.2-1-2.4-2.9-7.5-4-2.7-0.6-5.9-0.9-9.2-0.9z" fill="#9A6500" p-id="1419"></path><path d="M765.258393 464.265601a33.1 14.2 17.866 1 0 8.71289-27.030456 33.1 14.2 17.866 1 0-8.71289 27.030456Z" fill="#FF8099" p-id="1420"></path><path d="M785.3 472.6c-6.7 0-14.3-1.3-21.5-3.7-9.1-2.9-17.1-7.2-22.8-12.1-9.1-7.9-8.7-14.6-7.7-17.8 1.1-3.3 4.6-8.9 16.6-10 7.4-0.7 16.5 0.5 25.6 3.5 18 5.8 34.3 18 30.4 30-2.3 7.1-10.5 10.1-20.6 10.1z m-31.2-33.7c-1.1 0-2.2 0-3.2 0.1-5.3 0.5-7.7 2.1-8 3.1-0.3 1 0.7 3.7 4.7 7.2 4.6 4 11.6 7.7 19.3 10.1 17.6 5.7 28.7 2.5 29.5-0.1 0.8-2.6-6.3-11.6-24-17.3-6.3-2-12.8-3.1-18.3-3.1z" fill="#9A6500" p-id="1421"></path><path d="M512.2 451.5l1.2-5.8c0.1-0.7-0.1-1.4-0.6-1.9l-4.2-4.3c-1.2-1.3-0.5-3.5 1.3-3.7l5.9-0.7c0.7-0.1 1.3-0.5 1.7-1.1l2.8-5.3c0.8-1.6 3.2-1.6 3.9 0.1l2.5 5.4c0.3 0.6 0.9 1.1 1.6 1.2l5.8 1c1.8 0.3 2.4 2.5 1.1 3.7l-4.4 4c-0.5 0.5-0.8 1.2-0.7 1.9l0.8 5.9c0.3 1.8-1.6 3.1-3.2 2.2l-5.2-2.9c-0.6-0.4-1.4-0.4-2-0.1l-5.3 2.6c-1.5 0.9-3.3-0.5-3-2.2z" fill="#FFFEBB" p-id="1422"></path><path d="M514.2 455.7c-0.8 0-1.5-0.3-2.1-0.8-1.2-0.9-1.7-2.3-1.5-3.8l1.2-5.8c0-0.2 0-0.3-0.1-0.5l-4.2-4.3c-1-1.1-1.3-2.6-0.9-4 0.5-1.4 1.7-2.4 3.2-2.5l5.9-0.7c0.1 0 0.3-0.1 0.3-0.2l2.8-5.3c0.7-1.3 2-2.1 3.5-2 1.5 0.1 2.8 0.9 3.3 2.3l2.5 5.4c0.1 0.1 0.2 0.3 0.4 0.3l5.8 1c1.4 0.2 2.6 1.3 3 2.7 0.4 1.4 0 2.9-1.1 3.9l-4.3 4c-0.1 0.1-0.2 0.3-0.2 0.5l0.8 5.9c0.2 1.5-0.4 2.9-1.6 3.7-1.2 0.8-2.7 0.9-4 0.2l-5.2-2.9c-0.2-0.1-0.3-0.1-0.4 0l-5.3 2.6c-0.5 0.2-1.2 0.3-1.8 0.3z m-0.4-3.9c-0.1 0.3 0.1 0.5 0.2 0.5 0.1 0.1 0.3 0.2 0.5 0l5.3-2.6c1.1-0.6 2.5-0.5 3.6 0.1l5.1 2.9c0.2 0.1 0.4 0.1 0.5 0 0.1-0.1 0.3-0.2 0.2-0.5l-0.8-5.9c-0.2-1.2 0.2-2.5 1.2-3.3l4.4-4c0.2-0.2 0.2-0.4 0.1-0.5 0-0.1-0.1-0.3-0.4-0.4l-5.9-1c-1.2-0.2-2.3-1.1-2.8-2.2l-2.5-5.4c-0.1-0.2-0.2-0.3-0.4-0.3-0.1 0-0.4 0-0.5 0.3l-2.8 5.3c-0.6 1.1-1.7 1.9-2.9 2l-5.9 0.7c-0.3 0-0.4 0.2-0.4 0.4 0 0.1-0.1 0.3 0.1 0.6l4.1 4.2c0.9 0.9 1.3 2.2 1 3.4l-1 5.7z" fill="#9A6500" p-id="1423"></path></svg>