<?xml version="1.0" standalone="no"?><!DOCTYPE svg PUBLIC "-//W3C//DTD SVG 1.1//EN" "http://www.w3.org/Graphics/SVG/1.1/DTD/svg11.dtd"><svg t="1642417223221" class="icon" viewBox="0 0 1024 1024" version="1.1" xmlns="http://www.w3.org/2000/svg" p-id="2056" xmlns:xlink="http://www.w3.org/1999/xlink" width="200" height="200"><defs><style type="text/css"></style></defs><path d="M512 512m-436.9 0a436.9 436.9 0 1 0 873.8 0 436.9 436.9 0 1 0-873.8 0Z" fill="#FFFFFF" p-id="2057"></path><path d="M512 958.9c-60.3 0-118.8-11.8-173.9-35.1-53.2-22.5-101-54.7-142-95.8-41-41-73.3-88.8-95.8-142C77 630.8 65.1 572.3 65.1 512s11.8-118.8 35.1-173.9c22.5-53.2 54.7-101 95.8-142 41-41 88.8-73.3 142-95.8C393.2 77 451.7 65.1 512 65.1s118.8 11.8 173.9 35.1c53.2 22.5 101 54.7 142 95.8 41 41 73.3 88.8 95.8 142 23.3 55.1 35.1 113.6 35.1 173.9 0 60.3-11.8 118.8-35.1 173.9-22.5 53.2-54.7 101-95.8 142s-88.8 73.3-142 95.8C630.8 947 572.3 958.9 512 958.9z m0-873.8C276.6 85.1 85.1 276.6 85.1 512c0 235.4 191.5 426.9 426.9 426.9 235.4 0 426.9-191.5 426.9-426.9 0-235.4-191.5-426.9-426.9-426.9z" fill="#983BFF" p-id="2058"></path><path d="M512 943.8c-58.3 0-114.8-11.4-168.1-33.9-51.4-21.8-97.6-52.9-137.3-92.5-39.7-39.7-70.8-85.8-92.5-137.3C91.6 626.8 80.2 570.3 80.2 512s11.4-114.8 33.9-168.1c21.8-51.4 52.9-97.6 92.5-137.3s85.8-70.8 137.3-92.5C397.2 91.6 453.7 80.2 512 80.2s114.8 11.4 168.1 33.9c51.4 21.8 97.6 52.9 137.3 92.5 39.7 39.7 70.8 85.8 92.5 137.3 22.5 53.2 33.9 109.8 33.9 168.1s-11.4 114.8-33.9 168.1c-21.8 51.4-52.9 97.6-92.5 137.3-39.7 39.7-85.8 70.8-137.3 92.5-53.3 22.5-109.8 33.9-168.1 33.9z m0-843.6c-227.1 0-411.8 184.7-411.8 411.8 0 227.1 184.7 411.8 411.8 411.8 227.1 0 411.8-184.7 411.8-411.8 0-227.1-184.7-411.8-411.8-411.8z" fill="#6BAAFF" p-id="2059"></path><path d="M512 926.4c-55.9 0-110.2-11-161.3-32.6C301.3 873 257 843.1 219 805s-67.9-82.4-88.8-131.7C108.5 622.2 97.6 567.9 97.6 512c0-55.9 11-110.2 32.6-161.3C151 301.3 180.9 257 219 219s82.4-67.9 131.7-88.8c51.1-21.6 105.4-32.6 161.3-32.6 55.9 0 110.2 11 161.3 32.6C722.7 151 767 180.9 805 219s67.9 82.4 88.8 131.7c21.6 51.1 32.6 105.4 32.6 161.3 0 55.9-11 110.2-32.6 161.3C873 722.7 843.1 767 805 805s-82.4 67.9-131.7 88.8c-51.1 21.7-105.4 32.6-161.3 32.6z m0-808.8c-217.5 0-394.4 176.9-394.4 394.4 0 217.5 176.9 394.4 394.4 394.4 217.5 0 394.4-176.9 394.4-394.4 0-217.5-176.9-394.4-394.4-394.4z" fill="#5CFFF9" p-id="2060"></path><path d="M512 512m-399.2 0a399.2 399.2 0 1 0 798.4 0 399.2 399.2 0 1 0-798.4 0Z" fill="#5900A3" p-id="2061"></path><path d="M791.5 587.9c0 124.5-122.6 177.2-273.8 177.2S244 712.4 244 587.9s122.6-245.4 273.8-245.4 273.7 120.9 273.7 245.4z" fill="#FFCAA8" p-id="2062"></path><path d="M517.8 771.8c-80.6 0-148.7-14.8-197-42.8-26.5-15.4-47-34.7-61-57.4-14.9-24.2-22.5-52.4-22.5-83.7 0-62.4 30-126 82.3-174.3 26-24.1 56-43.1 89.1-56.5 34.9-14.1 71.6-21.3 109.1-21.3s74.2 7.2 109.1 21.3c33 13.4 63 32.4 89.1 56.5 52.3 48.4 82.3 111.9 82.3 174.3 0 31.4-7.6 59.5-22.5 83.7-14 22.7-34.5 42-61 57.4-48.4 28-116.5 42.8-197 42.8z m0-422.6c-142.3 0-267.1 111.5-267.1 238.7 0 56.4 25.9 99.9 76.9 129.5 46.3 26.8 112 41 190.2 41 78.2 0 144-14.2 190.2-41 51-29.6 76.9-73.2 76.9-129.5-0.1-127.1-124.9-238.7-267.1-238.7z" fill="#9A6500" p-id="2063"></path><path d="M738.7 583.6c0 97.7-98.9 117.4-221 117.4s-221-19.6-221-117.4 98.9-177 221-177 221 79.3 221 177z" fill="#FFF8DE" p-id="2064"></path><path d="M436 625.6c0 9.8-17.4 12.6-38.8 12.6s-38.8-2.7-38.8-12.6 17.4-14.7 38.8-14.7 38.8 4.8 38.8 14.7zM579.7 625.6c0 9.8 17.4 12.6 38.8 12.6s38.8-2.7 38.8-12.6-17.4-14.7-38.8-14.7-38.8 4.8-38.8 14.7z" fill="#FF7669" p-id="2065"></path><path d="M391.6 570.2a22.2 30.2 0 1 0 44.4 0 22.2 30.2 0 1 0-44.4 0Z" fill="#201600" p-id="2066"></path><path d="M579.7 570.2a22.2 30.2 0 1 0 44.4 0 22.2 30.2 0 1 0-44.4 0Z" fill="#201600" p-id="2067"></path><path d="M530.6 582.5c0 6.5-10.8 16.1-24.1 16.1s-24.1-9.6-24.1-16.1 10.8-7.9 24.1-7.9 24.1 1.4 24.1 7.9z" fill="#593E00" p-id="2068"></path><path d="M498.1 630.2a8.4 13.5 0 1 0 16.8 0 8.4 13.5 0 1 0-16.8 0Z" fill="#FF5F49" p-id="2069"></path><path d="M477 798.4l3-18.6c0.4-2.2-0.4-4.5-2-6.1l-13.7-13c-4.1-3.9-1.9-11 3.7-11.9l18.6-3c2.2-0.3 4.2-1.7 5.1-3.8l8.1-17c2.5-5.2 9.8-5.3 12.4-0.1l8.6 16.8c1 2 3 3.4 5.3 3.8l18.7 2.4c5.7 0.7 8 7.7 4 11.7l-13.4 13.3c-1.6 1.6-2.3 3.9-1.9 6.2l3.4 18.6c1 5.6-4.8 10-9.9 7.4l-16.8-8.6c-2-1.1-4.5-1-6.4 0.1l-16.6 8.9c-5.1 2.8-11.1-1.4-10.2-7.1z" fill="#FFFEBB" p-id="2070"></path><path d="M483.8 811.6c-2.4 0-4.8-0.7-6.9-2.1-3.8-2.7-5.8-7.2-5.1-11.9v-0.1l3-18.6c0.1-0.5-0.1-1.1-0.5-1.4l-13.7-13c-3.4-3.2-4.6-8-3.2-12.4 1.4-4.5 5.1-7.7 9.7-8.4l18.7-3c0.5-0.1 0.9-0.4 1.1-0.8l8.1-17.1c2-4.3 6.2-6.9 11-6.9 4.7 0 8.8 2.6 10.9 6.8l8.5 16.7c0.2 0.5 0.8 0.8 1.4 1l18.6 2.4c4.6 0.6 8.4 3.7 9.9 8.2 1.5 4.4 0.4 9.2-2.9 12.5L539 776.6c-0.2 0.2-0.6 0.8-0.5 1.5l3.4 18.6c0.8 4.6-1 9.2-4.7 12-3.7 2.8-8.6 3.2-12.7 1.1l-16.8-8.6c-0.5-0.3-1-0.3-1.4 0l-0.1 0.1-16.6 8.9c-1.8 0.9-3.8 1.4-5.8 1.4z m-1.6-12.4c-0.1 0.9 0.4 1.4 0.7 1.7 0.4 0.3 1 0.5 1.7 0.1l16.6-8.9c3.5-2 7.8-2 11.4-0.1l16.7 8.6c0.7 0.4 1.3 0.1 1.7-0.1 0.3-0.2 0.8-0.8 0.7-1.7l-3.4-18.6c-0.7-3.8 0.5-7.8 3.3-10.7l0.1-0.1 13.4-13.3c0.6-0.6 0.5-1.3 0.4-1.7-0.1-0.4-0.5-1-1.3-1.1l-18.8-2.5c-3.9-0.6-7.4-3.1-9.1-6.6l-8.6-16.8c-0.3-0.7-0.8-1-1.5-1-0.4 0-1.1 0.1-1.5 1l-8.1 17c-1.7 3.6-5.1 6.2-9.1 6.8l-18.6 3c-0.9 0.1-1.2 0.8-1.3 1.2-0.1 0.4-0.2 1.1 0.4 1.7l13.7 13c2.9 2.8 4.3 6.8 3.6 10.7l-3.1 18.4z" fill="#9A6500" p-id="2071"></path><path d="M367.6 362.5c-7.6 11.3-16.6 20-25.2 25-5.4 26.1-22 46.8-45.5 52.9-35.9 9.3-74.3-19.2-85.7-63.7-11.5-44.4 47.7-140.2 83.6-149.4 31.1-8 24.8 64.6 40.4 99.1 14.1-16.3 30.7-24.2 40-18 11 7.3 7.6 31.6-7.6 54.1z" fill="#FFA083" p-id="2072"></path><path d="M283.1 447.1c-14.1 0-28.3-4.9-41.1-14.4-17.1-12.7-29.7-32.1-35.6-54.7-5.5-21.5 3.6-55.7 24.6-91.7 15.1-25.9 40.5-58.1 62.6-63.8 5.9-1.5 11.3-0.8 15.8 2.2 12.2 8 15.8 30.6 19.7 54.6 2.1 13.3 4.4 26.9 8 37.9 14.9-14.5 30.8-19.8 40.9-12.9 13.7 9.2 11 35.4-6.2 61.1-7.2 10.8-16 19.7-24.9 25.3-6.5 28-24.6 48.3-48.7 54.5-5 1.3-10.1 1.9-15.1 1.9z m16.2-215.4c-0.9 0-2 0.1-3.3 0.5-15.5 4-38.2 27.8-56.5 59.2-19.3 33.2-28.3 65.4-23.5 84.1 5.3 20.4 16.6 37.8 31.8 49.2 15 11.1 31.9 15 47.8 10.9 20.9-5.4 36.6-23.7 41.9-49l0.5-2.2 1.9-1.1c8.3-4.8 16.6-13.1 23.5-23.4 14.5-21.6 16.4-42.3 8.9-47.2-5.7-3.8-19.4 0.9-33.4 17.1l-5.1 5.9-3.2-7.1c-5.9-13-8.7-30.6-11.5-47.6-3.4-20.8-6.8-42.3-15.3-47.9-0.9-0.7-2.3-1.4-4.5-1.4z" fill="#9A6500" p-id="2073"></path><path d="M659.8 370.7c7.6 11.3 16.6 20 25.2 25 5.4 26.1 22 46.8 45.5 52.9 35.9 9.3 74.3-19.2 85.7-63.7 11.5-44.4-47.7-140.2-83.6-149.4-31.1-8-24.8 64.6-40.4 99.1-14.1-16.3-30.7-24.2-40-18-11 7.3-7.6 31.5 7.6 54.1z" fill="#FFA083" p-id="2074"></path><path d="M744.3 455.3c-5.1 0-10.1-0.6-15.1-1.9-24.1-6.2-42.2-26.5-48.7-54.5-8.9-5.7-17.7-14.6-24.9-25.3-17.2-25.7-19.9-51.9-6.2-61.1 10.2-6.8 26.1-1.6 41 12.9 3.6-11 5.8-24.6 8-37.9 3.9-24 7.5-46.7 19.7-54.6 4.6-3 9.9-3.7 15.8-2.2 22.1 5.7 47.5 38 62.6 63.8 20.9 35.9 30.1 70.2 24.6 91.7-5.8 22.6-18.4 42-35.6 54.7-12.9 9.4-27.1 14.4-41.2 14.4z m-80.4-87.4c6.9 10.3 15.3 18.6 23.5 23.4l1.9 1.1 0.5 2.2c5.3 25.3 21 43.6 41.9 49 15.9 4.1 32.8 0.2 47.8-10.9 15.3-11.3 26.6-28.8 31.8-49.2 4.8-18.7-4.2-50.9-23.5-84.1-18.3-31.4-41-55.2-56.5-59.2-4.2-1.1-6.5 0-7.8 0.9-8.5 5.5-11.9 27.1-15.3 47.9-2.8 17-5.6 34.6-11.5 47.6l-3.2 7.1-5.1-5.9c-14-16.3-27.7-21-33.4-17.1-7.4 4.9-5.6 25.5 8.9 47.2z" fill="#9A6500" p-id="2075"></path><path d="M622.7 435.7c1.1 3.1 1.7 6.7 1.7 10.5 0 12-6 21.7-13.5 21.7s-13.5-9.7-13.5-21.7c0-2.4 0.2-4.7 0.7-6.8-24.6 3.1-51.7 4.8-80.3 4.8-21.6 0-42.4-1-61.9-2.8v1.5c0 30.7-10.9 55.5-24.4 55.5s-24.3-24.9-24.3-55.5c0-2.8 0.1-5.6 0.3-8.2-53.2-10.2-88.3-27.6-88.3-47.3 0-31.4 88.9-56.8 198.6-56.8 109.7 0 198.6 25.4 198.6 56.8-0.1 20.4-37.5 38.3-93.7 48.3z" fill="#FFA083" p-id="2076"></path><path d="M431.5 502.6c-16.2 0-28.4-25.6-28.4-59.6 0-1.7 0-3.3 0.1-4.9-56.1-11.2-88.1-29.6-88.1-50.6 0-17.4 21.1-32.7 61.1-44.1 37.9-10.8 88.1-16.8 141.5-16.8 53.4 0 103.7 6 141.5 16.8 40 11.4 61.1 26.7 61.1 44.1 0 21.7-33.7 40.4-92.7 51.5 0.5 2.4 0.7 4.8 0.7 7.3 0 14.5-7.7 25.8-17.6 25.8s-17.6-11.3-17.6-25.8c0-0.7 0-1.4 0.1-2.1-24 2.8-49.4 4.2-75.6 4.2-19.7 0-39.1-0.8-57.8-2.4-0.5 32.4-12.5 56.6-28.3 56.6z m86.3-167.9c-52.7 0-102.2 5.9-139.3 16.5-34.6 9.9-55.2 23.4-55.2 36.3 0 16.7 32.6 33.2 85 43.3l3.5 0.7-0.2 3.6c-0.2 2.6-0.3 5.3-0.3 8 0 30.3 10.7 51.4 20.3 51.4 9.6 0 20.3-21.1 20.3-51.4v-1.4l-0.1-4.6 4.5 0.4c19.8 1.9 40.5 2.8 61.5 2.8 27.8 0 54.6-1.6 79.8-4.8l5.7-0.7-1.1 5.6c-0.4 1.9-0.6 3.9-0.6 6 0 10.4 5 17.6 9.4 17.6s9.4-7.2 9.4-17.6c0-3.3-0.5-6.4-1.5-9.2l-1.6-4.5 4.7-0.8c54.9-9.8 90.3-27.2 90.3-44.2 0-12.8-20.6-26.4-55.2-36.3-37.2-10.9-86.7-16.7-139.3-16.7z" fill="#9A6500" p-id="2077"></path><path d="M424.5 457.2a7.6 10.4 0 1 0 15.2 0 7.6 10.4 0 1 0-15.2 0Z" fill="#FFFEBB" p-id="2078"></path><path d="M432.1 470.1c-5.7 0-10.1-5.7-10.1-12.9s4.5-12.9 10.1-12.9 10.1 5.8 10.1 12.9-4.6 12.9-10.1 12.9z m0-20.8c-2.8 0-5.1 3.6-5.1 7.9s2.3 7.9 5.1 7.9 5.1-3.6 5.1-7.9-2.4-7.9-5.1-7.9z" fill="#9A6500" p-id="2079"></path><path d="M603.2 448.2a7.6 9 0 1 0 15.2 0 7.6 9 0 1 0-15.2 0Z" fill="#FFFEBB" p-id="2080"></path><path d="M610.8 459.7c-5.6 0-10.1-5.2-10.1-11.5s4.5-11.5 10.1-11.5 10.1 5.2 10.1 11.5-4.5 11.5-10.1 11.5z m0-18c-2.8 0-5.1 2.9-5.1 6.5s2.3 6.5 5.1 6.5 5.1-2.9 5.1-6.5c0.1-3.6-2.2-6.5-5.1-6.5z" fill="#9A6500" p-id="2081"></path><path d="M505.7 393.8L481.3 364c-9.6-11.8-1.2-29.4 13.9-29.4H544c15.2 0 23.5 17.6 13.9 29.4l-24.4 29.8c-7.1 8.8-20.6 8.8-27.8 0z" fill="#FFFEBB" p-id="2082"></path><path d="M519.6 405.4c-6.9 0-13.4-3.1-17.8-8.4l-24.4-29.8c-5.7-6.9-6.8-16.3-3-24.4 3.8-8.1 11.8-13.1 20.8-13.1H544c9 0 16.9 5 20.8 13.1 3.8 8.1 2.7 17.5-3 24.4L537.4 397c-4.3 5.3-10.8 8.4-17.8 8.4z m-24.3-65.9c-5.2 0-9.5 2.8-11.7 7.4s-1.6 9.8 1.7 13.8l24.4 29.8c2.5 3 6.1 4.8 10.1 4.8s7.6-1.7 10.1-4.8l24.4-29.8c3.3-4 3.9-9.1 1.7-13.8-2.2-4.7-6.6-7.4-11.7-7.4h-49z" fill="#9A6500" p-id="2083"></path><path d="M245.1 394.6l3-18.6c0.4-2.2-0.4-4.5-2-6.1l-13.7-13c-4.1-3.9-1.9-11 3.7-11.9l18.6-3c2.2-0.3 4.2-1.7 5.1-3.8l8.1-17c2.5-5.2 9.8-5.3 12.4-0.1l8.6 16.8c1 2 3 3.4 5.3 3.8l18.7 2.4c5.7 0.7 8 7.7 4 11.7l-13.4 13.3c-1.6 1.6-2.3 3.9-1.9 6.2l3.4 18.6c1 5.6-4.8 10-9.9 7.4l-16.8-8.6c-2-1.1-4.5-1-6.4 0.1l-16.6 8.9c-5 2.8-11-1.4-10.2-7.1z" fill="#FFFEBB" p-id="2084"></path><path d="M251.9 407.9c-2.4 0-4.8-0.7-6.9-2.1-3.8-2.7-5.8-7.2-5.1-11.9v-0.1l3-18.6c0.1-0.5-0.1-1.1-0.5-1.4l-13.7-13c-3.4-3.2-4.6-8-3.2-12.4 1.4-4.5 5.1-7.7 9.7-8.4l18.7-3c0.5-0.1 0.9-0.4 1.1-0.8l8.1-17.1c2-4.3 6.2-6.9 11-6.9 4.7 0 8.8 2.6 10.9 6.8l8.5 16.7c0.2 0.5 0.8 0.8 1.4 1l18.6 2.4c4.6 0.6 8.4 3.7 9.9 8.2 1.5 4.4 0.4 9.2-2.9 12.5L307.2 373c-0.2 0.2-0.6 0.8-0.5 1.5l3.4 18.6c0.8 4.6-1 9.2-4.7 12-3.7 2.8-8.6 3.2-12.7 1.1l-16.8-8.6c-0.5-0.3-1-0.3-1.4 0l-0.1 0.1-16.6 8.9c-1.8 0.8-3.9 1.3-5.9 1.3z m-1.6-12.5c-0.1 0.9 0.4 1.4 0.7 1.7 0.4 0.3 1 0.5 1.7 0.1l16.6-8.9c3.5-2 7.8-2 11.4-0.1l16.7 8.6c0.7 0.4 1.3 0.1 1.7-0.1 0.3-0.2 0.8-0.8 0.7-1.7l-3.4-18.6c-0.7-3.8 0.5-7.8 3.3-10.7l0.1-0.1 13.4-13.3c0.6-0.6 0.5-1.3 0.4-1.7-0.1-0.4-0.5-1-1.3-1.1l-18.8-2.5c-3.9-0.6-7.4-3.1-9.1-6.6l-8.6-16.8c-0.3-0.7-0.8-1-1.5-1-0.4 0-1.1 0.1-1.5 1l-8.1 17c-1.7 3.6-5.1 6.2-9.1 6.8l-18.6 3c-0.9 0.1-1.2 0.8-1.3 1.2-0.1 0.4-0.2 1.1 0.4 1.7l13.7 13c2.9 2.8 4.3 6.8 3.6 10.7l-3.1 18.4z" fill="#9A6500" p-id="2085"></path><path d="M729 399.9l3-18.6c0.4-2.2-0.4-4.5-2-6.1l-13.7-13c-4.1-3.9-1.9-11 3.7-11.9l18.6-3c2.2-0.3 4.2-1.7 5.1-3.8l8.1-17c2.5-5.2 9.8-5.3 12.4-0.1l8.6 16.8c1 2 3 3.4 5.3 3.8l18.7 2.4c5.7 0.7 8 7.7 4 11.7l-13.4 13.3c-1.6 1.6-2.3 3.9-1.9 6.2l3.4 18.6c1 5.6-4.8 10-9.9 7.4l-16.8-8.6c-2-1.1-4.5-1-6.4 0.1l-16.6 8.9c-5 2.8-11-1.4-10.2-7.1z" fill="#FFFEBB" p-id="2086"></path><path d="M735.8 413.1c-2.4 0-4.8-0.7-6.9-2.1-3.8-2.7-5.8-7.2-5.1-11.9v-0.1l3-18.6c0.1-0.5-0.1-1.1-0.5-1.4l-13.7-13c-3.4-3.2-4.6-8-3.2-12.4 1.4-4.5 5.1-7.7 9.7-8.4l18.7-3c0.5-0.1 0.9-0.4 1.1-0.8l8.1-17.1c2-4.3 6.2-6.9 11-6.9 4.7 0 8.8 2.6 10.9 6.8l8.5 16.7c0.2 0.5 0.8 0.8 1.4 1l18.6 2.4c4.6 0.6 8.4 3.7 9.9 8.2 1.5 4.4 0.4 9.2-2.9 12.5l-13.3 13.2c-0.2 0.2-0.6 0.8-0.5 1.5l3.4 18.6c0.8 4.6-1 9.2-4.7 12-3.7 2.8-8.6 3.2-12.7 1.1l-16.8-8.6c-0.5-0.3-1-0.3-1.4 0l-0.1 0.1-16.6 8.9c-1.8 0.8-3.9 1.3-5.9 1.3z m-1.6-12.4c-0.1 0.9 0.4 1.4 0.7 1.7 0.4 0.3 1 0.5 1.7 0.1l16.6-8.9c3.5-2 7.8-2 11.4-0.1l16.7 8.6c0.7 0.4 1.3 0.1 1.7-0.1 0.3-0.2 0.8-0.8 0.7-1.7l-3.4-18.6c-0.7-3.8 0.5-7.8 3.3-10.7l0.1-0.1 13.4-13.3c0.6-0.6 0.5-1.3 0.4-1.7-0.1-0.4-0.5-1-1.3-1.1l-18.8-2.5c-3.9-0.6-7.4-3.1-9.1-6.6l-8.6-16.8c-0.3-0.7-0.8-1-1.5-1-0.4 0-1.1 0.1-1.5 1l-8.1 17c-1.7 3.6-5.1 6.2-9.1 6.8l-18.6 3c-0.9 0.1-1.2 0.8-1.3 1.2-0.1 0.4-0.2 1.1 0.4 1.7l13.7 13c2.9 2.8 4.3 6.8 3.6 10.7l-3.1 18.4z" fill="#9A6500" p-id="2087"></path></svg>