<?xml version="1.0" standalone="no"?><!DOCTYPE svg PUBLIC "-//W3C//DTD SVG 1.1//EN" "http://www.w3.org/Graphics/SVG/1.1/DTD/svg11.dtd"><svg t="1642417227844" class="icon" viewBox="0 0 1024 1024" version="1.1" xmlns="http://www.w3.org/2000/svg" p-id="2225" xmlns:xlink="http://www.w3.org/1999/xlink" width="200" height="200"><defs><style type="text/css"></style></defs><path d="M512 512m-436.9 0a436.9 436.9 0 1 0 873.8 0 436.9 436.9 0 1 0-873.8 0Z" fill="#FFFFFF" p-id="2226"></path><path d="M512 958.9c-60.3 0-118.8-11.8-173.9-35.1-53.2-22.5-101-54.7-142-95.8-41-41-73.3-88.8-95.8-142C77 630.8 65.1 572.3 65.1 512s11.8-118.8 35.1-173.9c22.5-53.2 54.7-101 95.8-142 41-41 88.8-73.3 142-95.8C393.2 77 451.7 65.1 512 65.1s118.8 11.8 173.9 35.1c53.2 22.5 101 54.7 142 95.8 41 41 73.3 88.8 95.8 142 23.3 55.1 35.1 113.6 35.1 173.9 0 60.3-11.8 118.8-35.1 173.9-22.5 53.2-54.7 101-95.8 142s-88.8 73.3-142 95.8C630.8 947 572.3 958.9 512 958.9z m0-873.8C276.6 85.1 85.1 276.6 85.1 512c0 235.4 191.5 426.9 426.9 426.9 235.4 0 426.9-191.5 426.9-426.9 0-235.4-191.5-426.9-426.9-426.9z" fill="#983BFF" p-id="2227"></path><path d="M512 943.8c-58.3 0-114.8-11.4-168.1-33.9-51.4-21.8-97.6-52.9-137.3-92.5-39.7-39.7-70.8-85.8-92.5-137.3C91.6 626.8 80.2 570.3 80.2 512s11.4-114.8 33.9-168.1c21.8-51.4 52.9-97.6 92.5-137.3s85.8-70.8 137.3-92.5C397.2 91.6 453.7 80.2 512 80.2s114.8 11.4 168.1 33.9c51.4 21.8 97.6 52.9 137.3 92.5 39.7 39.7 70.8 85.8 92.5 137.3 22.5 53.2 33.9 109.8 33.9 168.1s-11.4 114.8-33.9 168.1c-21.8 51.4-52.9 97.6-92.5 137.3-39.7 39.7-85.8 70.8-137.3 92.5-53.3 22.5-109.8 33.9-168.1 33.9z m0-843.6c-227.1 0-411.8 184.7-411.8 411.8 0 227.1 184.7 411.8 411.8 411.8 227.1 0 411.8-184.7 411.8-411.8 0-227.1-184.7-411.8-411.8-411.8z" fill="#6BAAFF" p-id="2228"></path><path d="M512 926.4c-55.9 0-110.2-11-161.3-32.6C301.3 873 257 843.1 219 805s-67.9-82.4-88.8-131.7C108.5 622.2 97.6 567.9 97.6 512c0-55.9 11-110.2 32.6-161.3C151 301.3 180.9 257 219 219s82.4-67.9 131.7-88.8c51.1-21.6 105.4-32.6 161.3-32.6 55.9 0 110.2 11 161.3 32.6C722.7 151 767 180.9 805 219s67.9 82.4 88.8 131.7c21.6 51.1 32.6 105.4 32.6 161.3 0 55.9-11 110.2-32.6 161.3C873 722.7 843.1 767 805 805s-82.4 67.9-131.7 88.8c-51.1 21.7-105.4 32.6-161.3 32.6z m0-808.8c-217.5 0-394.4 176.9-394.4 394.4 0 217.5 176.9 394.4 394.4 394.4 217.5 0 394.4-176.9 394.4-394.4 0-217.5-176.9-394.4-394.4-394.4z" fill="#5CFFF9" p-id="2229"></path><path d="M512 512m-399.2 0a399.2 399.2 0 1 0 798.4 0 399.2 399.2 0 1 0-798.4 0Z" fill="#5900A3" p-id="2230"></path><path d="M568.7 310.2m-38.1 0a38.1 38.1 0 1 0 76.2 0 38.1 38.1 0 1 0-76.2 0Z" fill="#D2FFF9" p-id="2231"></path><path d="M568.7 357c-25.8 0-46.9-21-46.9-46.9s21-46.9 46.9-46.9 46.9 21 46.9 46.9-21.1 46.9-46.9 46.9z m0-76.2c-16.2 0-29.4 13.2-29.4 29.4s13.2 29.4 29.4 29.4 29.4-13.2 29.4-29.4-13.2-29.4-29.4-29.4z" fill="#9A6500" p-id="2232"></path><path d="M638.3 792.7c-5 6.1-14.3 7.5-24.3 4.6-1.5-0.4-2.9 0.7-3 2.2-0.7 12.2-6.1 21.8-14.6 24.2-12.4 3.4-26.9-9.8-32.4-29.6s0.2-38.6 12.6-42.1c0.8-0.2 1.4-0.8 1.7-1.6 0.6-1.9 1.5-3.6 2.8-5.2 8.2-9.9 27.7-7.3 43.5 5.8 15.7 13.1 21.9 31.8 13.7 41.7z" fill="#6BD6FF" p-id="2233"></path><path d="M592.3 830c-6.3 0-12.7-2.8-18.6-8.2-6.9-6.3-12.3-15.6-15.3-26.2-6.2-22.4 0.4-43.3 15-48.6 0.8-2 1.9-3.8 3.2-5.4 5.3-6.4 13.9-9.2 24.1-7.8 9.3 1.2 19.1 5.8 27.5 12.8 18.5 15.4 24.9 37.3 14.5 49.8-5.7 6.8-15.4 9.5-26.4 7.4-1.8 13.1-8.7 22.7-18.4 25.4-1.9 0.6-3.7 0.8-5.6 0.8zM578 757.6c-9 2.6-12.9 18.8-8.5 34.9 2.3 8.4 6.7 16 11.9 20.8 2.7 2.4 7.9 6.3 13.4 4.8 5.7-1.6 9.8-9 10.3-18.9 0.2-2.5 1.4-4.8 3.4-6.2 2-1.4 4.5-1.9 6.9-1.2 8.1 2.3 15 1.3 18.3-2.7 6-7.2-0.1-22.9-13-33.5-6.7-5.6-14.6-9.3-21.7-10.2-3.6-0.5-10.1-0.6-13.7 3.7-0.8 0.9-1.4 2-1.7 3.2-0.7 2.5-2.8 4.5-5.6 5.3z m-5.3-8.9z" fill="#9A6500" p-id="2234"></path><path d="M577.5 769.2l16.4 49s4 0.2 8.1-6.5-20.9-43.5-20.9-43.5l-3.6 1z" fill="#FFF1AD" p-id="2235"></path><path d="M594 818.8c-0.1 0-0.1 0 0 0h-0.4l-0.1-0.3-16.6-49.5 4.5-1.3 0.2 0.3c1 1.5 25.2 37.2 20.9 44.1-4 6.4-7.9 6.7-8.5 6.7z m-15.9-49.2l16.2 48.2c1-0.1 4.1-1 7.4-6.3 3.2-5.2-13.7-32.3-20.7-42.7l-2.9 0.8z" fill="#9A6500" p-id="2236"></path><path d="M592.4 760.1l40.8 30.9s3.6-2.3 3.5-10.4c-0.1-8.1-41.7-23.6-41.7-23.6l-2.6 3.1z" fill="#FFF1AD" p-id="2237"></path><path d="M633.2 791.6l-41.5-31.4 3.2-3.7 0.3 0.1c1.7 0.6 41.9 15.7 42 24.1 0.1 8.3-3.6 10.7-3.7 10.8l-0.3 0.1zM593.1 760l40.1 30.3c0.8-0.7 3.1-3.3 3-9.7-0.1-6.3-29.3-18.6-41-23l-2.1 2.4z" fill="#9A6500" p-id="2238"></path><path d="M403.8 335.8c8.3 52.5 1.9 56.8-56.2 94.2-18.4 11.9-19.7-43.1-19.7-96.2S295.8 240 317.7 240c21.9 0 78.3 46.3 86.1 95.8z" fill="#FFCE84" p-id="2239"></path><path d="M342.9 436.7c-2.1 0-3.8-0.6-5.1-1.3-12.6-6.9-14.9-39.6-14.9-101.6 0-24-6.9-46-12-61.9-5-15.7-8.2-26.1-3.6-32.4 2.2-3 5.7-4.5 10.4-4.5 12.5 0 33.4 12.4 51.9 30.8 12.5 12.5 34.2 38.1 39.2 69.3 8.8 55.9-0.1 61.6-58.5 99.2-2.8 1.8-5.3 2.4-7.4 2.4zM317.7 245c-1.7 0-2.3 0.3-2.3 0.4-1.7 2.3 2.2 14.6 5 23.5 5.3 16.6 12.5 39.4 12.5 65 0 22 0.2 44.9 1.9 62.6 2.4 26 6.9 29.7 7.8 30.2 0.6 0.3 1.7-0.3 2.3-0.7 27.6-17.8 44.2-28.5 51.5-40 7-11 6.4-24.7 2.5-49.3-7.6-48.2-62.5-91.7-81.2-91.7z" fill="#9A6500" p-id="2240"></path><path d="M351.6 256.5c-0.8-2-9.7 1.8-20.4 5.9s-15.7 7.6-14.9 9.6c0.8 2 10.3 2.1 21.1-1.8 10.9-4 15-11.7 14.2-13.7zM374 277.5c-1.1-2.9-12.2 3.4-27.3 9.3-15.2 5.9-24 9.8-22.8 12.7 1.1 2.9 14.6 3 29.9-2.5 15.6-5.7 21.3-16.6 20.2-19.5z" fill="#FF7E00" p-id="2241"></path><path d="M396.9 311.3c-1.6-4-16.5 3.7-37.6 11.9s-33.8 14.7-32.2 18.7c1.6 4 20.3 4.2 41.6-3.5 21.8-7.9 29.7-23.1 28.2-27.1z" fill="#FF7E00" p-id="2242"></path><path d="M627 335.8c-8.3 52.5-1.9 56.8 56.2 94.2 18.4 11.9 19.7-43.1 19.7-96.2S735 240 713.1 240c-21.9 0-78.3 46.3-86.1 95.8z" fill="#FFCE84" p-id="2243"></path><path d="M688 436.7c-2.1 0-4.6-0.6-7.4-2.4-58.3-37.6-67.3-43.4-58.5-99.2 4.9-31.2 26.7-56.8 39.2-69.3 18.5-18.4 39.3-30.8 51.9-30.8 4.7 0 8.2 1.5 10.4 4.5 4.7 6.4 1.4 16.7-3.6 32.4-5.1 16-12 37.9-12 61.9 0 62-2.3 94.7-14.9 101.6-1.3 0.7-3.1 1.3-5.1 1.3z m-56-100.1c-3.9 24.6-4.5 38.3 2.5 49.3 7.3 11.5 23.9 22.2 51.5 40 0.6 0.4 1.8 1 2.3 0.7 0.9-0.5 5.4-4.2 7.8-30.2 1.6-17.7 1.9-40.6 1.9-62.6 0-25.6 7.2-48.3 12.5-65 2.8-9 6.7-21.2 5-23.5 0-0.1-0.6-0.4-2.3-0.4-18.8 0.1-73.6 43.6-81.2 91.7z" fill="#9A6500" p-id="2244"></path><path d="M679.3 256.5c0.8-2 9.7 1.8 20.4 5.9s15.7 7.6 14.9 9.6-10.3 2.1-21.1-1.8c-11-4-15-11.7-14.2-13.7zM656.8 277.5c1.1-2.9 12.2 3.4 27.3 9.3s24 9.8 22.8 12.7c-1.1 2.9-14.6 3-29.9-2.5-15.6-5.7-21.3-16.6-20.2-19.5z" fill="#FF7E00" p-id="2245"></path><path d="M633.9 311.3c1.6-4 16.5 3.7 37.6 11.9s33.8 14.7 32.2 18.7c-1.6 4-20.3 4.2-41.6-3.5-21.7-7.9-29.7-23.1-28.2-27.1z" fill="#FF7E00" p-id="2246"></path><path d="M791.5 587.9c0 124.5-122.6 177.2-273.8 177.2S244 712.4 244 587.9s122.6-245.4 273.8-245.4 273.7 120.9 273.7 245.4z" fill="#FFCAA8" p-id="2247"></path><path d="M517.8 771.8c-80.6 0-148.7-14.8-197-42.8-26.5-15.4-47-34.7-61-57.4-14.9-24.2-22.5-52.4-22.5-83.7 0-62.4 30-126 82.3-174.3 26-24.1 56-43.1 89.1-56.5 34.9-14.1 71.6-21.3 109.1-21.3s74.2 7.2 109.1 21.3c33 13.4 63 32.4 89.1 56.5 52.3 48.4 82.3 111.9 82.3 174.3 0 31.4-7.6 59.5-22.5 83.7-14 22.7-34.5 42-61 57.4-48.4 28-116.5 42.8-197 42.8z m0-422.6c-142.3 0-267.1 111.5-267.1 238.7 0 56.4 25.9 99.9 76.9 129.5 46.3 26.8 112 41 190.2 41 78.2 0 144-14.2 190.2-41 51-29.6 76.9-73.2 76.9-129.5-0.1-127.1-124.9-238.7-267.1-238.7z" fill="#9A6500" p-id="2248"></path><path d="M738.7 583.6c0 97.7-98.9 117.4-221 117.4s-221-19.6-221-117.4 98.9-177 221-177 221 79.3 221 177z" fill="#FFF8DE" p-id="2249"></path><path d="M436 625.6c0 9.8-17.4 12.6-38.8 12.6s-38.8-2.7-38.8-12.6 17.4-14.7 38.8-14.7 38.8 4.8 38.8 14.7zM579.7 625.6c0 9.8 17.4 12.6 38.8 12.6s38.8-2.7 38.8-12.6-17.4-14.7-38.8-14.7-38.8 4.8-38.8 14.7z" fill="#FF7669" p-id="2250"></path><path d="M391.6 570.2a22.2 30.2 0 1 0 44.4 0 22.2 30.2 0 1 0-44.4 0Z" fill="#201600" p-id="2251"></path><path d="M579.7 570.2a22.2 30.2 0 1 0 44.4 0 22.2 30.2 0 1 0-44.4 0Z" fill="#201600" p-id="2252"></path><path d="M530.6 582.5c0 6.5-10.8 16.1-24.1 16.1s-24.1-9.6-24.1-16.1 10.8-7.9 24.1-7.9 24.1 1.4 24.1 7.9z" fill="#593E00" p-id="2253"></path><path d="M498.1 630.2a8.4 13.5 0 1 0 16.8 0 8.4 13.5 0 1 0-16.8 0Z" fill="#FF5F49" p-id="2254"></path><path d="M477 798.4l3-18.6c0.4-2.2-0.4-4.5-2-6.1l-13.7-13c-4.1-3.9-1.9-11 3.7-11.9l18.6-3c2.2-0.3 4.2-1.7 5.1-3.8l8.1-17c2.5-5.2 9.8-5.3 12.4-0.1l8.6 16.8c1 2 3 3.4 5.3 3.8l18.7 2.4c5.7 0.7 8 7.7 4 11.7l-13.4 13.3c-1.6 1.6-2.3 3.9-1.9 6.2l3.4 18.6c1 5.6-4.8 10-9.9 7.4l-16.8-8.6c-2-1.1-4.5-1-6.4 0.1l-16.6 8.9c-5.1 2.8-11.1-1.4-10.2-7.1z" fill="#FFFEBB" p-id="2255"></path><path d="M483.8 811.6c-2.4 0-4.8-0.7-6.9-2.1-3.8-2.7-5.8-7.2-5.1-11.9v-0.1l3-18.6c0.1-0.5-0.1-1.1-0.5-1.4l-13.7-13c-3.4-3.2-4.6-8-3.2-12.4 1.4-4.5 5.1-7.7 9.7-8.4l18.7-3c0.5-0.1 0.9-0.4 1.1-0.8l8.1-17.1c2-4.3 6.2-6.9 11-6.9 4.7 0 8.8 2.6 10.9 6.8l8.5 16.7c0.2 0.5 0.8 0.8 1.4 1l18.6 2.4c4.6 0.6 8.4 3.7 9.9 8.2 1.5 4.4 0.4 9.2-2.9 12.5L539 776.6c-0.2 0.2-0.6 0.8-0.5 1.5l3.4 18.6c0.8 4.6-1 9.2-4.7 12-3.7 2.8-8.6 3.2-12.7 1.1l-16.8-8.6c-0.5-0.3-1-0.3-1.4 0l-0.1 0.1-16.6 8.9c-1.8 0.9-3.8 1.4-5.8 1.4z m-1.6-12.4c-0.1 0.9 0.4 1.4 0.7 1.7 0.4 0.3 1 0.5 1.7 0.1l16.6-8.9c3.5-2 7.8-2 11.4-0.1l16.7 8.6c0.7 0.4 1.3 0.1 1.7-0.1 0.3-0.2 0.8-0.8 0.7-1.7l-3.4-18.6c-0.7-3.8 0.5-7.8 3.3-10.7l0.1-0.1 13.4-13.3c0.6-0.6 0.5-1.3 0.4-1.7-0.1-0.4-0.5-1-1.3-1.1l-18.8-2.5c-3.9-0.6-7.4-3.1-9.1-6.6l-8.6-16.8c-0.3-0.7-0.8-1-1.5-1-0.4 0-1.1 0.1-1.5 1l-8.1 17c-1.7 3.6-5.1 6.2-9.1 6.8l-18.6 3c-0.9 0.1-1.2 0.8-1.3 1.2-0.1 0.4-0.2 1.1 0.4 1.7l13.7 13c2.9 2.8 4.3 6.8 3.6 10.7l-3.1 18.4z" fill="#9A6500" p-id="2256"></path><path d="M262.3 492.5m-42.2 0a42.2 42.2 0 1 0 84.4 0 42.2 42.2 0 1 0-84.4 0Z" fill="#D2FFF9" p-id="2257"></path><path d="M262.3 544.4c-28.6 0-51.8-23.2-51.8-51.8 0-28.6 23.2-51.8 51.8-51.8s51.8 23.2 51.8 51.8c0.1 28.5-23.2 51.8-51.8 51.8z m0-84.4c-17.9 0-32.5 14.6-32.5 32.5s14.6 32.5 32.5 32.5 32.5-14.6 32.5-32.5-14.6-32.5-32.5-32.5z" fill="#9A6500" p-id="2258"></path><path d="M413.8 739.2m-38.1 0a38.1 38.1 0 1 0 76.2 0 38.1 38.1 0 1 0-76.2 0Z" fill="#D2FFF9" p-id="2259"></path><path d="M413.8 786.1c-25.8 0-46.9-21-46.9-46.9s21-46.9 46.9-46.9 46.9 21 46.9 46.9-21 46.9-46.9 46.9z m0-76.2c-16.2 0-29.4 13.2-29.4 29.4s13.2 29.4 29.4 29.4 29.4-13.2 29.4-29.4-13.2-29.4-29.4-29.4z" fill="#9A6500" p-id="2260"></path></svg>