<?xml version="1.0" standalone="no"?><!DOCTYPE svg PUBLIC "-//W3C//DTD SVG 1.1//EN" "http://www.w3.org/Graphics/SVG/1.1/DTD/svg11.dtd"><svg t="1642417217459" class="icon" viewBox="0 0 1024 1024" version="1.1" xmlns="http://www.w3.org/2000/svg" p-id="1889" xmlns:xlink="http://www.w3.org/1999/xlink" width="200" height="200"><defs><style type="text/css"></style></defs><path d="M512 512m-436.9 0a436.9 436.9 0 1 0 873.8 0 436.9 436.9 0 1 0-873.8 0Z" fill="#FFFFFF" p-id="1890"></path><path d="M512 958.9c-60.3 0-118.8-11.8-173.9-35.1-53.2-22.5-101-54.7-142-95.8-41-41-73.3-88.8-95.8-142C77 630.8 65.1 572.3 65.1 512s11.8-118.8 35.1-173.9c22.5-53.2 54.7-101 95.8-142 41-41 88.8-73.3 142-95.8C393.2 77 451.7 65.1 512 65.1s118.8 11.8 173.9 35.1c53.2 22.5 101 54.7 142 95.8 41 41 73.3 88.8 95.8 142 23.3 55.1 35.1 113.6 35.1 173.9 0 60.3-11.8 118.8-35.1 173.9-22.5 53.2-54.7 101-95.8 142s-88.8 73.3-142 95.8C630.8 947 572.3 958.9 512 958.9z m0-873.8C276.6 85.1 85.1 276.6 85.1 512c0 235.4 191.5 426.9 426.9 426.9 235.4 0 426.9-191.5 426.9-426.9 0-235.4-191.5-426.9-426.9-426.9z" fill="#983BFF" p-id="1891"></path><path d="M512 943.8c-58.3 0-114.8-11.4-168.1-33.9-51.4-21.8-97.6-52.9-137.3-92.5-39.7-39.7-70.8-85.8-92.5-137.3C91.6 626.8 80.2 570.3 80.2 512s11.4-114.8 33.9-168.1c21.8-51.4 52.9-97.6 92.5-137.3s85.8-70.8 137.3-92.5C397.2 91.6 453.7 80.2 512 80.2s114.8 11.4 168.1 33.9c51.4 21.8 97.6 52.9 137.3 92.5 39.7 39.7 70.8 85.8 92.5 137.3 22.5 53.2 33.9 109.8 33.9 168.1s-11.4 114.8-33.9 168.1c-21.8 51.4-52.9 97.6-92.5 137.3-39.7 39.7-85.8 70.8-137.3 92.5-53.3 22.5-109.8 33.9-168.1 33.9z m0-843.6c-227.1 0-411.8 184.7-411.8 411.8 0 227.1 184.7 411.8 411.8 411.8 227.1 0 411.8-184.7 411.8-411.8 0-227.1-184.7-411.8-411.8-411.8z" fill="#6BAAFF" p-id="1892"></path><path d="M512 926.4c-55.9 0-110.2-11-161.3-32.6C301.3 873 257 843.1 219 805s-67.9-82.4-88.8-131.7C108.5 622.2 97.6 567.9 97.6 512c0-55.9 11-110.2 32.6-161.3C151 301.3 180.9 257 219 219s82.4-67.9 131.7-88.8c51.1-21.6 105.4-32.6 161.3-32.6 55.9 0 110.2 11 161.3 32.6C722.7 151 767 180.9 805 219s67.9 82.4 88.8 131.7c21.6 51.1 32.6 105.4 32.6 161.3 0 55.9-11 110.2-32.6 161.3C873 722.7 843.1 767 805 805s-82.4 67.9-131.7 88.8c-51.1 21.7-105.4 32.6-161.3 32.6z m0-808.8c-217.5 0-394.4 176.9-394.4 394.4 0 217.5 176.9 394.4 394.4 394.4 217.5 0 394.4-176.9 394.4-394.4 0-217.5-176.9-394.4-394.4-394.4z" fill="#5CFFF9" p-id="1893"></path><path d="M512 512m-399.2 0a399.2 399.2 0 1 0 798.4 0 399.2 399.2 0 1 0-798.4 0Z" fill="#5900A3" p-id="1894"></path><path d="M236.6 407.4c-0.6 1.1-1.3 2.1-1.9 3.2-0.1 0.2-0.4 0.2-0.5 0.1-1-1.2-2-2.5-2.9-3.9-0.2-0.2 0-0.6 0.3-0.6 1.6 0.1 3.2 0.4 4.8 0.7 0.2 0 0.3 0.3 0.2 0.5z" fill="#FFDC99" p-id="1895"></path><path d="M234.4 421.1c-3.2 0-6.2-1.4-8.2-3.9-1.3-1.6-2.5-3.2-3.6-4.8-2.2-3.4-2.3-7.8-0.3-11.3 2.1-3.5 5.9-5.5 10-5.2 2 0.2 4 0.5 6.1 0.9 3.4 0.7 6.2 3 7.6 6.2 1.4 3.2 1.1 6.8-0.7 9.8-0.6 1-1.2 2-1.7 2.9-1.7 3-4.8 5-8.3 5.3-0.3 0.1-0.6 0.1-0.9 0.1z m-7.5-17.3c-0.8 2.4-0.8 5 0.2 7.3 1 2.4 3 4.3 5.4 5.3 3.1-0.3 6-2.1 7.6-4.8 0.3-0.5 0.5-1 0.7-1.6l-4.3-2.6 4.3 2.6c0.9-2.3 0.8-5-0.1-7.3-2-1.6-4.6-2.5-7.2-2.2-2.6 0.2-4.9 1.4-6.6 3.3z m-1.2 1.7z m2.1-3.5s-0.1 0 0 0c-0.1 0 0 0 0 0z" fill="#9A6500" p-id="1896"></path><path d="M236.6 407.4c-0.6 1.1-1.3 2.1-1.9 3.2-0.1 0.2-0.4 0.2-0.5 0.1-1-1.2-2-2.5-2.9-3.9-0.2-0.2 0-0.6 0.3-0.6 1.6 0.1 3.2 0.4 4.8 0.7 0.2 0 0.3 0.3 0.2 0.5z" fill="#FFDC99" p-id="1897"></path><path d="M234.4 421.1c-3.2 0-6.2-1.4-8.2-3.9-1.3-1.6-2.5-3.2-3.6-4.8-2.2-3.4-2.3-7.8-0.3-11.3 2.1-3.5 5.9-5.5 10-5.2 2 0.2 4 0.5 6.1 0.9 3.4 0.7 6.2 3 7.6 6.2 1.4 3.2 1.1 6.8-0.7 9.8-0.6 1-1.2 2-1.7 2.9-1.7 3-4.8 5-8.3 5.3-0.3 0.1-0.6 0.1-0.9 0.1z m-7.5-17.3c-0.8 2.4-0.8 5 0.2 7.3 1 2.4 3 4.3 5.4 5.3 3.1-0.3 6-2.1 7.6-4.8 0.3-0.5 0.5-1 0.7-1.6l-4.3-2.6 4.3 2.6c0.9-2.3 0.8-5-0.1-7.3-2-1.6-4.6-2.5-7.2-2.2-2.6 0.2-4.9 1.4-6.6 3.3z m-1.2 1.7z m2.1-3.5s-0.1 0 0 0c-0.1 0 0 0 0 0z" fill="#9A6500" p-id="1898"></path><path d="M872.8 531.5c0 53.2-27.3 96.2-60.9 96.2h-0.2C770.6 730.7 653.9 805 516.3 805c-139.7 0-257.9-76.7-297.2-182.3-0.7-1.8-2-3.2-3.8-3.9-26.8-10.1-46.7-48.2-46.7-93.6 0-53.2 27.3-96.2 60.9-96.2 0.8 0 1.6 0 2.4 0.1 0.1 0 0.2 0.1 0.3 0.2 1 1.5 2.1 3 3.2 4.4 0.2 0.2 0.4 0.2 0.5-0.1 0.6-1.1 1.2-2.1 1.9-3.2 0.1-0.2 0-0.5-0.2-0.6-1.8-0.4-3.5-0.6-5.3-0.7-0.1 0-0.2-0.1-0.3-0.2-0.5-0.8-1-1.7-1.5-2.5-16.8-31 4.6-77.7 47.9-104.3 35-21.5 73.6-23.3 96-6.7 0.8 0.6 1.6 1.2 2.4 1.9-0.2-0.9-0.4-1.8-0.5-2.7-0.2-1.7-0.4-3.3-0.4-5 0-37.9 61.5-68.7 137.3-68.7 75.9 0 137.3 30.8 137.3 68.7 0 0.8 0 1.6-0.1 2.5 0 0.2 0.1 0.3 0.2 0.4 4.9 1.9 9.7 4 14.4 6.1 0.1 0.1 0.2 0 0.3-0.1 21.6-19.8 62.6-19.1 99.7 3.6 43.3 26.6 64.7 73.3 47.9 104.3-1.7 3.1-3.6 5.9-5.9 8.4-0.2 0.2 0 0.6 0.3 0.6 1.4-0.2 2.9-0.2 4.3-0.2 33.9 0 61.2 43.1 61.2 96.3z" fill="#FFDC99" p-id="1899"></path><path d="M516.3 815.3c-69.7 0-136-18.4-191.7-53.1-26.9-16.8-50.5-36.9-70-59.8s-34.5-48-44.6-74.6c-30.5-12.7-51.6-54.5-51.6-102.6 0-27.6 6.9-53.8 19.4-73.6 10.6-16.7 24.2-27.5 39.2-31.4-4.6-15.7-2.7-33.7 5.7-52 9.9-21.5 27.8-41 50.5-55 31.9-19.6 67.5-24.4 93.8-13.9 9-39.4 70.1-68.9 146.5-68.9 38.3 0 74.4 7.5 101.7 21.2 27.7 13.9 43.8 32.8 45.7 53.6 1 0.4 2 0.9 3 1.3 26.3-18.9 69-16.5 106.8 6.7 22.7 13.9 40.6 33.4 50.5 55 9.5 20.7 10.7 41.1 3.4 58.2 15 3.9 28.5 14.7 39.1 31.4 12.5 19.8 19.5 45.9 19.5 73.6 0 27.6-6.9 53.8-19.5 73.6-11.9 18.8-27.7 30.2-45 32.5-21.8 50.7-60.8 94.3-113.2 126.2-55.2 33.8-120.6 51.6-189.2 51.6zM226.9 439.5c-26.2 2.5-47.9 40.8-47.9 85.8 0 39.9 16.8 75.2 40 83.9 4.5 1.7 8.1 5.3 9.8 9.9 39.1 105 154.6 175.5 287.6 175.5 130.2 0 245-68.6 285.7-170.8l2.6-6.5h7.2c27.4 0 50.6-39.4 50.6-85.9s-23.2-85.9-50.6-85.9c-1.1 0-2.1 0.1-3.2 0.2-4.4 0.5-8.6-1.8-10.6-5.7-2-3.9-1.4-8.7 1.6-12 1.7-1.9 3.2-4.1 4.5-6.4 6.6-12.1 6-27.9-1.7-44.6-8.2-17.9-23.3-34.2-42.5-46-32.1-19.7-68.8-21.7-87.3-4.8-3.1 2.9-7.7 3.6-11.6 1.8-4.5-2.1-9.2-4.1-13.9-5.9-4.3-1.7-7-6-6.7-10.6 0-0.6 0.1-1.2 0.1-1.8 0-14-12.6-28.4-34.5-39.3-24.5-12.3-57.4-19-92.5-19s-68 6.8-92.5 19c-21.9 11-34.5 25.3-34.5 39.3 0 1.2 0.1 2.4 0.3 3.5 0.1 0.8 0.2 1.4 0.3 1.9l7.1 30.7-23.9-20.5c-0.6-0.5-1.2-1-1.8-1.4-19.4-14.4-54.1-11.4-84.5 7.2-19.2 11.8-34.3 28.1-42.5 46-7.2 15.8-8.2 30.8-2.7 42.6 0.4 0.1 0.7 0.1 1.1 0.2 3.4 0.7 6.2 3 7.6 6.2 1.4 3.2 1.1 6.9-0.7 9.8-0.6 1-1.2 2-1.7 2.9-1.7 3-4.8 5-8.3 5.3-3.5 0.3-6.9-1.1-9.1-3.8-0.5-0.3-0.7-0.6-0.9-0.8z m588.1 2.2c0 0.1 0 0.1 0 0 0 0.1 0 0.1 0 0z m-591.4-6.9s0 0.1 0 0c0 0.1 0 0 0 0z m17.2-11.4s0 0.1 0 0c0 0.1 0 0 0 0z m-7.8-4.5z m425.7-108c-0.1 0.1-0.1 0.1 0 0-0.1 0.1-0.1 0.1 0 0z m10.8-1.7z m-14.8-6.3z" fill="#9A6500" p-id="1900"></path><path d="M791.5 587.9c0 124.5-122.6 177.2-273.8 177.2S244 712.4 244 587.9s122.6-245.4 273.8-245.4 273.7 120.9 273.7 245.4z" fill="#FFCAA8" p-id="1901"></path><path d="M517.8 771.8c-80.6 0-148.7-14.8-197-42.8-26.5-15.4-47-34.7-61-57.4-14.9-24.2-22.5-52.4-22.5-83.7 0-62.4 30-126 82.3-174.3 26-24.1 56-43.1 89.1-56.5 34.9-14.1 71.6-21.3 109.1-21.3s74.2 7.2 109.1 21.3c33 13.4 63 32.4 89.1 56.5 52.3 48.4 82.3 111.9 82.3 174.3 0 31.4-7.6 59.5-22.5 83.7-14 22.7-34.5 42-61 57.4-48.4 28-116.5 42.8-197 42.8z m0-422.6c-142.3 0-267.1 111.5-267.1 238.7 0 56.4 25.9 99.9 76.9 129.5 46.3 26.8 112 41 190.2 41 78.2 0 144-14.2 190.2-41 51-29.6 76.9-73.2 76.9-129.5-0.1-127.1-124.9-238.7-267.1-238.7z" fill="#9A6500" p-id="1902"></path><path d="M738.7 583.6c0 97.7-98.9 117.4-221 117.4s-221-19.6-221-117.4 98.9-177 221-177 221 79.3 221 177z" fill="#FFF8DE" p-id="1903"></path><path d="M436 625.6c0 9.8-17.4 12.6-38.8 12.6s-38.8-2.7-38.8-12.6 17.4-14.7 38.8-14.7 38.8 4.8 38.8 14.7zM579.7 625.6c0 9.8 17.4 12.6 38.8 12.6s38.8-2.7 38.8-12.6-17.4-14.7-38.8-14.7-38.8 4.8-38.8 14.7z" fill="#FF7669" p-id="1904"></path><path d="M391.6 570.2a22.2 30.2 0 1 0 44.4 0 22.2 30.2 0 1 0-44.4 0Z" fill="#201600" p-id="1905"></path><path d="M579.7 570.2a22.2 30.2 0 1 0 44.4 0 22.2 30.2 0 1 0-44.4 0Z" fill="#201600" p-id="1906"></path><path d="M530.6 582.5c0 6.5-10.8 16.1-24.1 16.1s-24.1-9.6-24.1-16.1 10.8-7.9 24.1-7.9 24.1 1.4 24.1 7.9z" fill="#593E00" p-id="1907"></path><path d="M498.1 630.2a8.4 13.5 0 1 0 16.8 0 8.4 13.5 0 1 0-16.8 0Z" fill="#FF5F49" p-id="1908"></path><path d="M477 798.4l3-18.6c0.4-2.2-0.4-4.5-2-6.1l-13.7-13c-4.1-3.9-1.9-11 3.7-11.9l18.6-3c2.2-0.3 4.2-1.7 5.1-3.8l8.1-17c2.5-5.2 9.8-5.3 12.4-0.1l8.6 16.8c1 2 3 3.4 5.3 3.8l18.7 2.4c5.7 0.7 8 7.7 4 11.7l-13.4 13.3c-1.6 1.6-2.3 3.9-1.9 6.2l3.4 18.6c1 5.6-4.8 10-9.9 7.4l-16.8-8.6c-2-1.1-4.5-1-6.4 0.1l-16.6 8.9c-5.1 2.8-11.1-1.4-10.2-7.1z" fill="#FFFEBB" p-id="1909"></path><path d="M483.8 811.6c-2.4 0-4.8-0.7-6.9-2.1-3.8-2.7-5.8-7.2-5.1-11.9v-0.1l3-18.6c0.1-0.5-0.1-1.1-0.5-1.4l-13.7-13c-3.4-3.2-4.6-8-3.2-12.4 1.4-4.5 5.1-7.7 9.7-8.4l18.7-3c0.5-0.1 0.9-0.4 1.1-0.8l8.1-17.1c2-4.3 6.2-6.9 11-6.9 4.7 0 8.8 2.6 10.9 6.8l8.5 16.7c0.2 0.5 0.8 0.8 1.4 1l18.6 2.4c4.6 0.6 8.4 3.7 9.9 8.2 1.5 4.4 0.4 9.2-2.9 12.5L539 776.6c-0.2 0.2-0.6 0.8-0.5 1.5l3.4 18.6c0.8 4.6-1 9.2-4.7 12-3.7 2.8-8.6 3.2-12.7 1.1l-16.8-8.6c-0.5-0.3-1-0.3-1.4 0l-0.1 0.1-16.6 8.9c-1.8 0.9-3.8 1.4-5.8 1.4z m-1.6-12.4c-0.1 0.9 0.4 1.4 0.7 1.7 0.4 0.3 1 0.5 1.7 0.1l16.6-8.9c3.5-2 7.8-2 11.4-0.1l16.7 8.6c0.7 0.4 1.3 0.1 1.7-0.1 0.3-0.2 0.8-0.8 0.7-1.7l-3.4-18.6c-0.7-3.8 0.5-7.8 3.3-10.7l0.1-0.1 13.4-13.3c0.6-0.6 0.5-1.3 0.4-1.7-0.1-0.4-0.5-1-1.3-1.1l-18.8-2.5c-3.9-0.6-7.4-3.1-9.1-6.6l-8.6-16.8c-0.3-0.7-0.8-1-1.5-1-0.4 0-1.1 0.1-1.5 1l-8.1 17c-1.7 3.6-5.1 6.2-9.1 6.8l-18.6 3c-0.9 0.1-1.2 0.8-1.3 1.2-0.1 0.4-0.2 1.1 0.4 1.7l13.7 13c2.9 2.8 4.3 6.8 3.6 10.7l-3.1 18.4z" fill="#9A6500" p-id="1910"></path><path d="M642.8 359.9c0 38.8-48.2 47-136.3 47s-137.2-8.2-137.2-47 49-50.7 137.2-50.7 136.3 12 136.3 50.7z" fill="#FBFFAD" p-id="1911"></path><path d="M506.5 417.8c-51.2 0-82.5-2.8-104.7-9.4-28.7-8.5-43.3-24.8-43.3-48.5s14.4-40.6 42.9-50.2c23.1-7.8 56.5-11.4 105.1-11.4 48.6 0 81.8 3.6 104.7 11.4 28.2 9.6 42.5 26.4 42.5 50.2 0 23.6-14.4 39.9-42.9 48.4-22 6.7-53.2 9.5-104.3 9.5z m0-97.7c-111.9 0-126.3 21.3-126.3 39.8 0 26.3 34.2 36.1 126.3 36.1 91.5 0 125.5-9.8 125.5-36.1 0-9.4-3.2-21.2-27.7-29.6-20.6-6.9-51.7-10.2-97.8-10.2z" fill="#9A6500" p-id="1912"></path><path d="M475.8 342.4l3-18.6c0.4-2.2-0.4-4.5-2-6.1l-13.7-13c-4.1-3.9-1.9-11 3.7-11.9l18.6-3c2.2-0.3 4.2-1.7 5.1-3.8l8.1-17c2.5-5.2 9.8-5.3 12.4-0.1l8.6 16.8c1 2 3 3.4 5.3 3.8l18.7 2.4c5.7 0.7 8 7.7 4 11.7l-13.4 13.3c-1.6 1.6-2.3 3.9-1.9 6.2l3.4 18.6c1 5.6-4.8 10-9.9 7.4l-16.8-8.6c-2-1.1-4.5-1-6.4 0.1l-16.6 8.9c-5.1 2.8-11.1-1.4-10.2-7.1z" fill="#A3DCFF" p-id="1913"></path><path d="M482.5 355.6c-2.4 0-4.8-0.7-6.9-2.1-3.8-2.7-5.8-7.2-5.1-11.9v-0.1l3-18.6c0.1-0.5-0.1-1.1-0.5-1.4l-13.7-13c-3.4-3.2-4.6-8-3.2-12.4 1.4-4.5 5.1-7.7 9.7-8.4l18.7-3c0.5-0.1 0.9-0.4 1.1-0.8l8.1-17.1c2-4.3 6.2-6.9 11-6.9 4.7 0 8.8 2.6 10.9 6.8l8.5 16.7c0.2 0.5 0.8 0.8 1.4 1l18.6 2.4c4.6 0.6 8.4 3.7 9.9 8.2 1.5 4.4 0.4 9.2-2.9 12.5l-13.3 13.2c-0.2 0.2-0.6 0.8-0.5 1.5l3.4 18.6c0.8 4.6-1 9.2-4.7 12-3.7 2.8-8.6 3.2-12.7 1.1l-16.8-8.6c-0.5-0.3-1-0.3-1.4 0l-0.1 0.1-16.6 8.9c-1.8 0.8-3.8 1.3-5.9 1.3z m-1.6-12.4c-0.1 0.9 0.4 1.4 0.7 1.7 0.4 0.3 1 0.5 1.7 0.1l16.7-9c3.5-2 7.8-2 11.4-0.1l16.7 8.6c0.7 0.4 1.3 0.1 1.7-0.1 0.3-0.2 0.8-0.8 0.7-1.7l-3.4-18.6c-0.7-3.8 0.5-7.8 3.3-10.7l0.1-0.1 13.4-13.3c0.6-0.6 0.5-1.3 0.4-1.7-0.1-0.4-0.5-1-1.3-1.1l-18.8-2.5c-3.9-0.6-7.4-3.1-9.1-6.6l-8.6-16.8c-0.3-0.7-0.8-1-1.5-1-0.4 0-1.1 0.1-1.5 1l-8.1 17c-1.7 3.6-5.1 6.2-9.1 6.8l-18.6 3c-0.9 0.1-1.2 0.8-1.3 1.2-0.1 0.4-0.2 1.1 0.4 1.7l13.7 13c2.9 2.8 4.3 6.8 3.6 10.7l-3.2 18.5z" fill="#9A6522" p-id="1914"></path><path d="M428.9 369.8H379c-3 0-5.5-2.4-5.5-5.5v-5.7c0-3 2.4-5.5 5.5-5.5h49.9c3 0 5.5 2.4 5.5 5.5v5.7c0 3.1-2.5 5.5-5.5 5.5z" fill="#DDEEFF" p-id="1915"></path><path d="M428.9 373.7H379c-5.2 0-9.4-4.2-9.4-9.4v-5.7c0-5.2 4.2-9.4 9.4-9.4h49.9c5.2 0 9.4 4.2 9.4 9.4v5.7c0 5.2-4.2 9.4-9.4 9.4zM379 357.1c-0.8 0-1.5 0.7-1.5 1.5v5.7c0 0.8 0.7 1.5 1.5 1.5h49.9c0.8 0 1.5-0.7 1.5-1.5v-5.7c0-0.8-0.7-1.5-1.5-1.5H379z" fill="#9A6500" p-id="1916"></path><path d="M629.4 369.8h-49.9c-3 0-5.5-2.4-5.5-5.5v-5.7c0-3 2.4-5.5 5.5-5.5h49.9c3 0 5.5 2.4 5.5 5.5v5.7c0 3.1-2.4 5.5-5.5 5.5z" fill="#DDEEFF" p-id="1917"></path><path d="M629.4 373.7h-49.9c-5.2 0-9.4-4.2-9.4-9.4v-5.7c0-5.2 4.2-9.4 9.4-9.4h49.9c5.2 0 9.4 4.2 9.4 9.4v5.7c0.1 5.2-4.2 9.4-9.4 9.4z m-49.9-16.6c-0.8 0-1.5 0.7-1.5 1.5v5.7c0 0.8 0.7 1.5 1.5 1.5h49.9c0.8 0 1.5-0.7 1.5-1.5v-5.7c0-0.8-0.7-1.5-1.5-1.5h-49.9z" fill="#9A6500" p-id="1918"></path></svg>