<?xml version="1.0" standalone="no"?><!DOCTYPE svg PUBLIC "-//W3C//DTD SVG 1.1//EN" "http://www.w3.org/Graphics/SVG/1.1/DTD/svg11.dtd"><svg t="1642417210190" class="icon" viewBox="0 0 1024 1024" version="1.1" xmlns="http://www.w3.org/2000/svg" p-id="1730" xmlns:xlink="http://www.w3.org/1999/xlink" width="200" height="200"><defs><style type="text/css"></style></defs><path d="M512 512m-436.9 0a436.9 436.9 0 1 0 873.8 0 436.9 436.9 0 1 0-873.8 0Z" fill="#FFFFFF" p-id="1731"></path><path d="M512 958.9c-60.3 0-118.8-11.8-173.9-35.1-53.2-22.5-101-54.7-142-95.8-41-41-73.3-88.8-95.8-142C77 630.8 65.1 572.3 65.1 512s11.8-118.8 35.1-173.9c22.5-53.2 54.7-101 95.8-142 41-41 88.8-73.3 142-95.8C393.2 77 451.7 65.1 512 65.1s118.8 11.8 173.9 35.1c53.2 22.5 101 54.7 142 95.8 41 41 73.3 88.8 95.8 142 23.3 55.1 35.1 113.6 35.1 173.9 0 60.3-11.8 118.8-35.1 173.9-22.5 53.2-54.7 101-95.8 142s-88.8 73.3-142 95.8C630.8 947 572.3 958.9 512 958.9z m0-873.8C276.6 85.1 85.1 276.6 85.1 512c0 235.4 191.5 426.9 426.9 426.9 235.4 0 426.9-191.5 426.9-426.9 0-235.4-191.5-426.9-426.9-426.9z" fill="#983BFF" p-id="1732"></path><path d="M512 943.8c-58.3 0-114.8-11.4-168.1-33.9-51.4-21.8-97.6-52.9-137.3-92.5-39.7-39.7-70.8-85.8-92.5-137.3C91.6 626.8 80.2 570.3 80.2 512s11.4-114.8 33.9-168.1c21.8-51.4 52.9-97.6 92.5-137.3s85.8-70.8 137.3-92.5C397.2 91.6 453.7 80.2 512 80.2s114.8 11.4 168.1 33.9c51.4 21.8 97.6 52.9 137.3 92.5 39.7 39.7 70.8 85.8 92.5 137.3 22.5 53.2 33.9 109.8 33.9 168.1s-11.4 114.8-33.9 168.1c-21.8 51.4-52.9 97.6-92.5 137.3-39.7 39.7-85.8 70.8-137.3 92.5-53.3 22.5-109.8 33.9-168.1 33.9z m0-843.6c-227.1 0-411.8 184.7-411.8 411.8 0 227.1 184.7 411.8 411.8 411.8 227.1 0 411.8-184.7 411.8-411.8 0-227.1-184.7-411.8-411.8-411.8z" fill="#6BAAFF" p-id="1733"></path><path d="M512 926.4c-55.9 0-110.2-11-161.3-32.6C301.3 873 257 843.1 219 805s-67.9-82.4-88.8-131.7C108.5 622.2 97.6 567.9 97.6 512c0-55.9 11-110.2 32.6-161.3C151 301.3 180.9 257 219 219s82.4-67.9 131.7-88.8c51.1-21.6 105.4-32.6 161.3-32.6 55.9 0 110.2 11 161.3 32.6C722.7 151 767 180.9 805 219s67.9 82.4 88.8 131.7c21.6 51.1 32.6 105.4 32.6 161.3 0 55.9-11 110.2-32.6 161.3C873 722.7 843.1 767 805 805s-82.4 67.9-131.7 88.8c-51.1 21.7-105.4 32.6-161.3 32.6z m0-808.8c-217.5 0-394.4 176.9-394.4 394.4 0 217.5 176.9 394.4 394.4 394.4 217.5 0 394.4-176.9 394.4-394.4 0-217.5-176.9-394.4-394.4-394.4z" fill="#5CFFF9" p-id="1734"></path><path d="M512 512m-399.2 0a399.2 399.2 0 1 0 798.4 0 399.2 399.2 0 1 0-798.4 0Z" fill="#5900A3" p-id="1735"></path><path d="M791.5 587.9c0 124.5-122.6 177.2-273.8 177.2S244 712.4 244 587.9s122.6-245.4 273.8-245.4 273.7 120.9 273.7 245.4z" fill="#FFCAA8" p-id="1736"></path><path d="M517.8 771.8c-80.6 0-148.7-14.8-197-42.8-26.5-15.4-47-34.7-61-57.4-14.9-24.2-22.5-52.4-22.5-83.7 0-62.4 30-126 82.3-174.3 26-24.1 56-43.1 89.1-56.5 34.9-14.1 71.6-21.3 109.1-21.3s74.2 7.2 109.1 21.3c33 13.4 63 32.4 89.1 56.5 52.3 48.4 82.3 111.9 82.3 174.3 0 31.4-7.6 59.5-22.5 83.7-14 22.7-34.5 42-61 57.4-48.4 28-116.5 42.8-197 42.8z m0-422.6c-142.3 0-267.1 111.5-267.1 238.7 0 56.4 25.9 99.9 76.9 129.5 46.3 26.8 112 41 190.2 41 78.2 0 144-14.2 190.2-41 51-29.6 76.9-73.2 76.9-129.5-0.1-127.1-124.9-238.7-267.1-238.7z" fill="#9A6500" p-id="1737"></path><path d="M738.7 583.6c0 97.7-98.9 117.4-221 117.4s-221-19.6-221-117.4 98.9-177 221-177 221 79.3 221 177z" fill="#FFF8DE" p-id="1738"></path><path d="M436 625.6c0 9.8-17.4 12.6-38.8 12.6s-38.8-2.7-38.8-12.6 17.4-14.7 38.8-14.7 38.8 4.8 38.8 14.7zM579.7 625.6c0 9.8 17.4 12.6 38.8 12.6s38.8-2.7 38.8-12.6-17.4-14.7-38.8-14.7-38.8 4.8-38.8 14.7z" fill="#FF7669" p-id="1739"></path><path d="M391.6 570.2a22.2 30.2 0 1 0 44.4 0 22.2 30.2 0 1 0-44.4 0Z" fill="#201600" p-id="1740"></path><path d="M579.7 570.2a22.2 30.2 0 1 0 44.4 0 22.2 30.2 0 1 0-44.4 0Z" fill="#201600" p-id="1741"></path><path d="M530.6 582.5c0 6.5-10.8 16.1-24.1 16.1s-24.1-9.6-24.1-16.1 10.8-7.9 24.1-7.9 24.1 1.4 24.1 7.9z" fill="#593E00" p-id="1742"></path><path d="M498.1 630.2a8.4 13.5 0 1 0 16.8 0 8.4 13.5 0 1 0-16.8 0Z" fill="#FF5F49" p-id="1743"></path><path d="M320.1 417.3c-64.1-32.3-140.5-2.8-170.6 66-24.1 55-2.1 120.6 49.2 146.5 41 20.7 89.9 1.8 109.2-42.2 15.4-35.2 1.3-77.2-31.5-93.7-26.3-13.2-57.5-1.1-69.9 27-9.9 22.5-0.8 49.4 20.2 60 16.8 8.5 36.8 0.7 44.7-17.3 6.3-14.4 0.5-31.6-12.9-38.4-10.8-5.4-23.6-0.5-28.6 11.1-4 9.2-0.3 20.2 8.3 24.6" fill="#FFDCA2" p-id="1744"></path><path d="M233.6 644.9c-13 0-25.9-3.1-37.9-9.1-54.3-27.4-77.8-97-52.3-155.1 15.8-36 43.9-62.9 79.2-75.6 33.2-11.9 68.9-9.7 100.6 6.3l-6 12c-28.4-14.3-60.3-16.3-90-5.6-31.8 11.4-57.1 35.7-71.4 68.3-22.7 51.7-2 113.5 46.1 137.8 17.5 8.9 37.3 10.1 55.7 3.5 19.7-7.1 35.4-22.2 44.3-42.4 14-32 1.3-70.1-28.4-85.1-10.6-5.4-22.6-6.1-33.7-2.1-12 4.3-21.6 13.5-27 25.9-8.5 19.3-0.8 42.3 17 51.3 6.2 3.1 13.2 3.6 19.7 1.2 7-2.5 12.7-7.9 15.9-15.2 4.9-11.2 0.5-24.5-9.8-29.7-3.4-1.7-7.2-1.9-10.7-0.7-3.9 1.4-7 4.4-8.8 8.5-2.6 6-0.3 13.1 5.1 15.9l-6 12c-11.7-5.9-16.8-20.8-11.4-33.2 3.3-7.5 9.1-13 16.5-15.7 7-2.5 14.6-2.1 21.3 1.3 16.5 8.3 23.7 29.5 16 47.1-4.7 10.7-13.1 18.7-23.6 22.5-10 3.6-20.7 2.9-30.3-1.9-24.1-12.2-34.5-43-23.3-68.7 6.9-15.8 19.2-27.5 34.7-33.1 14.6-5.3 30.4-4.3 44.3 2.8 35.9 18.1 51.4 64 34.6 102.4-10.4 23.7-28.9 41.3-52.1 49.7-9.2 3-18.7 4.7-28.3 4.7z" fill="#9A6500" p-id="1745"></path><path d="M703.9 417.3c64.1-32.3 140.5-2.8 170.6 66 24.1 55 2.1 120.6-49.2 146.5-41 20.7-89.9 1.8-109.2-42.2-15.4-35.2-1.3-77.2 31.5-93.7 26.3-13.2 57.5-1.1 69.9 27 9.9 22.5 0.8 49.4-20.2 60-16.8 8.5-36.8 0.7-44.7-17.3-6.3-14.4-0.5-31.6 12.9-38.4 10.8-5.4 23.6-0.5 28.6 11.1 4 9.2 0.3 20.2-8.3 24.6" fill="#FFDCA2" p-id="1746"></path><path d="M790.4 644.9c-9.5 0-19.1-1.7-28.4-5-23.2-8.3-41.7-26-52.1-49.7-16.8-38.4-1.3-84.3 34.6-102.4 14-7 29.7-8 44.3-2.8 15.5 5.6 27.8 17.3 34.7 33.1 11.3 25.7 0.8 56.5-23.3 68.7-9.5 4.8-20.3 5.5-30.3 1.9-10.5-3.8-18.9-11.8-23.6-22.5-7.7-17.6-0.5-38.7 16-47.1 6.7-3.4 14.2-3.8 21.3-1.3 7.4 2.7 13.2 8.2 16.5 15.7 5.4 12.4 0.3 27.3-11.4 33.2l-6-12c5.5-2.8 7.8-9.9 5.1-15.9-1.8-4.1-4.9-7.1-8.8-8.5-3.5-1.3-7.3-1-10.7 0.7-10.3 5.2-14.7 18.5-9.8 29.7 3.2 7.3 8.8 12.7 15.9 15.2 6.5 2.3 13.5 1.9 19.7-1.2 17.8-9 25.5-32 17-51.3-5.4-12.4-15-21.5-27-25.9-11.1-4-23.1-3.3-33.7 2.1-29.6 14.9-42.4 53.1-28.4 85.1 8.9 20.3 24.6 35.3 44.3 42.4 18.4 6.6 38.1 5.4 55.7-3.5 48.1-24.2 68.7-86.1 46.1-137.8-14.3-32.6-39.7-56.9-71.4-68.3-29.7-10.7-61.6-8.7-90 5.6l-6-12c31.7-16 67.4-18.2 100.6-6.3 35.3 12.7 63.4 39.5 79.2 75.6 25.5 58.1 2 127.7-52.3 155.1-12 6.3-24.9 9.4-37.8 9.4z" fill="#9A6500" p-id="1747"></path><path d="M774.2 362.6c-3 16.6-13.6 30.6-28.8 40.3 1.3 4.9 1.9 9.9 1.9 15.1 0 44.3-48.3 80.1-107.9 80.1-22.9 0-44.1-5.3-61.6-14.3-19.8 21.8-50.5 37.4-84.9 37.4-40.4 0-75.5-21.5-94-49.1-14.4 5.3-30.5 8.2-47.6 8.2-59.6 0-107.9-35.9-107.9-80.1 0-35.6 31.3-65.8 74.5-76.2-0.8-9.8 0.3-19.8 3-29.5 11.5-41.6 48.8-63 106.5-47.7 12 3.2 22.1 7.6 30.6 13 18.6-19.5 49.3-32.2 83.9-32.2 45.1 0 83.5 21.6 97.3 51.6 16.1-4.7 34.7-5.9 53.8-2.6 51.7 8.9 88.1 47.5 81.2 86z" fill="#FFFFFF" p-id="1748"></path><path d="M492.8 527.9c-38.1 0-74.6-18.2-96.6-47.8-14.2 4.6-29.4 6.9-45.1 6.9-30.3 0-58.8-8.8-80.3-24.8-22.1-16.4-34.3-38.5-34.3-62 0-36.5 29.6-68.7 74.3-81.3-0.1-8.7 1-17.5 3.5-26.2 6.4-23 20-40.1 39.5-49.4 20.1-9.7 46.1-10.7 75.2-2.9 10.3 2.7 19.6 6.5 27.9 11.1 20.7-19.2 52-30.5 84.9-30.5 44.1 0 83.8 20 100.8 50.4 16.2-3.9 33.9-4.3 51.4-1.3 31.8 5.5 59 21.5 74.7 44 11 15.7 15.2 32.9 12.1 49.8-3 16.4-12.8 31.2-27.9 42.1 0.7 4 1.1 8.1 1.1 12.1 0 23.6-12.2 45.6-34.3 62-21.5 16-50.1 24.8-80.3 24.8-21.4 0-42.1-4.4-60.1-12.8-22.6 22.4-54.5 35.8-86.5 35.8zM401.4 464l2.9 4.4c18.8 28 53.5 46.2 88.5 46.2 30 0 59.9-13.2 79.9-35.2l3.5-3.8 4.6 2.4c17.2 8.9 37.4 13.6 58.5 13.6 55.8 0 101.2-32.9 101.2-73.4 0-4.5-0.6-9-1.7-13.4l-1.2-4.7 4.1-2.6c14.3-9.1 23.3-21.5 25.9-35.8 2.4-13.3-1-27-9.9-39.7-13.5-19.3-38.2-33.7-66-38.5-17.5-3-35-2.2-50.8 2.4l-5.5 1.6-2.4-5.2c-13.1-28.5-49.8-47.7-91.2-47.7-31.5 0-61 11.3-79.1 30.1l-3.8 4-4.6-3c-8.1-5.2-17.8-9.3-28.7-12.2-51.2-13.6-87 2.1-98.3 43-2.5 9.1-3.5 18.3-2.8 27.2l0.4 5.7-5.5 1.3c-41.5 10-69.4 38-69.4 69.7 0 40.5 45.4 73.4 101.2 73.4 15.9 0 31.2-2.6 45.3-7.8l4.9-2z" fill="#9A6500" p-id="1749"></path><path d="M525.4 803.4l-15.9-8.4c-1.9-1-4.2-1-6.1 0l-15.9 8.4c-4.8 2.5-10.5-1.6-9.6-7l3-17.7c0.4-2.1-0.3-4.3-1.9-5.8l-12.9-12.5c-3.9-3.8-1.8-10.5 3.7-11.2l17.8-2.6c2.1-0.3 4-1.7 5-3.6l7.9-16.1c2.4-4.9 9.4-4.9 11.8 0l7.9 16.1c1 1.9 2.8 3.3 5 3.6l17.8 2.6c5.4 0.8 7.6 7.4 3.7 11.2l-12.9 12.5a6.34 6.34 0 0 0-1.9 5.8l3 17.7c1 5.4-4.6 9.5-9.5 7z" fill="#FFFEBB" p-id="1750"></path><path d="M484.4 810.9c-2.7 0-5.5-0.9-7.8-2.6-4.1-3-6.2-8-5.3-13l3-17.7-12.8-12.4c-3.6-3.6-4.9-8.8-3.4-13.6 1.6-4.8 5.7-8.3 10.7-9l17.8-2.6 7.9-16c2.3-4.6 6.8-7.4 11.9-7.4 5.1 0 9.7 2.8 11.9 7.4l7.9 16.1 17.7 2.5c5 0.7 9.2 4.2 10.7 9 1.6 4.8 0.3 10.1-3.4 13.6l-12.8 12.5 3 17.6c0.9 5-1.2 10-5.3 13s-9.5 3.4-14 1l-15.8-8.3-15.8 8.3c-1.8 1.1-4 1.6-6.1 1.6z m44.2-13.4z m-22.1-9.9c2.1 0 4.3 0.5 6.2 1.5l15.7 8.3-3-17.5c-0.7-4.3 0.7-8.7 3.8-11.8l12.7-12.4-17.6-2.6c-4.3-0.6-8.1-3.3-10-7.3l-7.8-15.9-7.9 15.9c-1.9 3.9-5.7 6.6-10 7.3l-17.6 2.6 12.7 12.4c3.1 3.1 4.6 7.5 3.8 11.8l-3 17.5 15.7-8.3c2-1 4.1-1.5 6.3-1.5z" fill="#9A6500" p-id="1751"></path><path d="M327.1 425.4l-6.5-16.8c-0.8-2-2.5-3.5-4.6-4l-17.5-4.2c-5.3-1.3-6.9-8.1-2.6-11.5l13.9-11.3c1.7-1.4 2.6-3.5 2.4-5.6l-1.4-17.9c-0.4-5.4 5.6-9 10.2-6.1l15.1 9.8c1.8 1.2 4.1 1.4 6.1 0.6l16.6-6.9c5-2.1 10.3 2.5 8.9 7.8l-4.6 17.3c-0.6 2.1-0.1 4.3 1.4 6l11.7 13.6c3.6 4.2 0.8 10.6-4.7 10.9l-17.9 1c-2.2 0.1-4.1 1.3-5.3 3.1l-9.4 15.3c-2.9 4.6-9.8 4-11.8-1.1z" fill="#FFFEBB" p-id="1752"></path><path d="M333.3 436.3c-0.4 0-0.8 0-1.2-0.1-5.1-0.5-9.4-3.7-11.2-8.5l-6.5-16.8-17.4-4.1c-5-1.2-8.7-5-9.9-10-1.1-5 0.6-10.1 4.6-13.3l13.9-11.3-1.5-17.8c-0.4-5.1 2.1-9.9 6.4-12.5 4.4-2.6 9.8-2.5 14 0.3l15.1 9.8 16.5-6.9c4.7-2 10-1.1 13.9 2.3 3.8 3.4 5.4 8.5 4.1 13.4l-4.6 17.3 11.6 13.5c3.3 3.9 4.1 9.2 2.1 13.9-2 4.7-6.4 7.8-11.5 8l-17.9 1-9.3 15.3c-2.4 4.2-6.6 6.5-11.2 6.5z m0.1-13.3z m-33.1-29l17.2 4.1c4.3 1 7.7 4.1 9.3 8.1l6.4 16.6 9.3-15.1c2.3-3.7 6.3-6.1 10.6-6.3l17.7-0.9-11.5-13.5c-2.8-3.3-3.9-7.8-2.7-12.1l4.6-17.1-16.4 6.8c-4 1.7-8.6 1.3-12.3-1.1l-14.9-9.6 1.4 17.7c0.3 4.4-1.5 8.6-4.9 11.4l-13.8 11z" fill="#9A6500" p-id="1753"></path></svg>