<?xml version="1.0" standalone="no"?><!DOCTYPE svg PUBLIC "-//W3C//DTD SVG 1.1//EN" "http://www.w3.org/Graphics/SVG/1.1/DTD/svg11.dtd"><svg t="1642417202885" class="icon" viewBox="0 0 1024 1024" version="1.1" xmlns="http://www.w3.org/2000/svg" p-id="1561" xmlns:xlink="http://www.w3.org/1999/xlink" width="200" height="200"><defs><style type="text/css"></style></defs><path d="M512 512m-436.9 0a436.9 436.9 0 1 0 873.8 0 436.9 436.9 0 1 0-873.8 0Z" fill="#FFFFFF" p-id="1562"></path><path d="M512 958.9c-60.3 0-118.8-11.8-173.9-35.1-53.2-22.5-101-54.7-142-95.8-41-41-73.3-88.8-95.8-142C77 630.8 65.1 572.3 65.1 512s11.8-118.8 35.1-173.9c22.5-53.2 54.7-101 95.8-142 41-41 88.8-73.3 142-95.8C393.2 77 451.7 65.1 512 65.1s118.8 11.8 173.9 35.1c53.2 22.5 101 54.7 142 95.8 41 41 73.3 88.8 95.8 142 23.3 55.1 35.1 113.6 35.1 173.9 0 60.3-11.8 118.8-35.1 173.9-22.5 53.2-54.7 101-95.8 142s-88.8 73.3-142 95.8C630.8 947 572.3 958.9 512 958.9z m0-873.8C276.6 85.1 85.1 276.6 85.1 512c0 235.4 191.5 426.9 426.9 426.9 235.4 0 426.9-191.5 426.9-426.9 0-235.4-191.5-426.9-426.9-426.9z" fill="#983BFF" p-id="1563"></path><path d="M512 943.8c-58.3 0-114.8-11.4-168.1-33.9-51.4-21.8-97.6-52.9-137.3-92.5-39.7-39.7-70.8-85.8-92.5-137.3C91.6 626.8 80.2 570.3 80.2 512s11.4-114.8 33.9-168.1c21.8-51.4 52.9-97.6 92.5-137.3s85.8-70.8 137.3-92.5C397.2 91.6 453.7 80.2 512 80.2s114.8 11.4 168.1 33.9c51.4 21.8 97.6 52.9 137.3 92.5 39.7 39.7 70.8 85.8 92.5 137.3 22.5 53.2 33.9 109.8 33.9 168.1s-11.4 114.8-33.9 168.1c-21.8 51.4-52.9 97.6-92.5 137.3-39.7 39.7-85.8 70.8-137.3 92.5-53.3 22.5-109.8 33.9-168.1 33.9z m0-843.6c-227.1 0-411.8 184.7-411.8 411.8 0 227.1 184.7 411.8 411.8 411.8 227.1 0 411.8-184.7 411.8-411.8 0-227.1-184.7-411.8-411.8-411.8z" fill="#6BAAFF" p-id="1564"></path><path d="M512 926.4c-55.9 0-110.2-11-161.3-32.6C301.3 873 257 843.1 219 805s-67.9-82.4-88.8-131.7C108.5 622.2 97.6 567.9 97.6 512c0-55.9 11-110.2 32.6-161.3C151 301.3 180.9 257 219 219s82.4-67.9 131.7-88.8c51.1-21.6 105.4-32.6 161.3-32.6 55.9 0 110.2 11 161.3 32.6C722.7 151 767 180.9 805 219s67.9 82.4 88.8 131.7c21.6 51.1 32.6 105.4 32.6 161.3 0 55.9-11 110.2-32.6 161.3C873 722.7 843.1 767 805 805s-82.4 67.9-131.7 88.8c-51.1 21.7-105.4 32.6-161.3 32.6z m0-808.8c-217.5 0-394.4 176.9-394.4 394.4 0 217.5 176.9 394.4 394.4 394.4 217.5 0 394.4-176.9 394.4-394.4 0-217.5-176.9-394.4-394.4-394.4z" fill="#5CFFF9" p-id="1565"></path><path d="M512 512m-399.2 0a399.2 399.2 0 1 0 798.4 0 399.2 399.2 0 1 0-798.4 0Z" fill="#5900A3" p-id="1566"></path><path d="M214.8 424.3c-3.3-4.3-5.1-8.9-5.1-13.8 0-3.5 0.9-6.9 2.7-10-1.2 10.2-0.4 18.4 2.4 23.8z" fill="#FFFFFF" p-id="1567"></path><path d="M211.1 427.2c-4.1-5.2-6.1-10.9-6.1-16.7 0-4.2 1.1-8.4 3.2-12.3l11.6-21.3L217 401c-1.4 11.9 0.3 18.1 1.9 21.1l-7.8 5.1z" fill="#9A6500" p-id="1568"></path><path d="M346.4 421.2c0 21.5-36.2 38.9-80.8 38.9-28.9 0-54.2-7.3-68.5-18.2-2.4-1.8-4.4-3.7-6.2-5.7-3.5-5.7-4.4-14.6-3-25.7 3.1-24.4 17.4-59.5 40.5-95.5 38-59.4 85.5-98.8 106.1-88.2 20.5 10.7 6.3 67.4-31.7 126.8-1.6 2.4-3.1 4.8-4.7 7.2-6.7 10-1.9 24 9.1 27.2 23.5 6.7 39.2 19.1 39.2 33.2z" fill="#FF9221" p-id="1569"></path><path d="M265.6 468.3c-29.7 0-57.2-7.4-73.5-19.9-2.6-2-5-4.2-7-6.5l-0.5-0.5-0.3-0.5-1.5-1.8v-1c-3.5-7.1-4.4-16.8-2.9-28.8 3.4-26.8 18.6-62.8 41.7-98.9 18.8-29.4 40.6-55 61.3-72.2 23.1-19.2 42.2-25.7 55.4-18.8 4.2 2.2 9.7 6.8 12.3 16.5 6.6 24.9-9.4 72.8-40.9 122-1.6 2.4-3.2 4.9-4.8 7.3-1.8 2.7-2.2 6.1-1.1 9.2 1 2.8 3.1 4.8 5.7 5.6 28.3 8.2 45.1 23.6 45.1 41.2 0 13.7-10.1 26.1-28.3 34.9-16.4 7.8-37.9 12.2-60.7 12.2z m-66.5-35.4c0.9 0.9 1.9 1.7 3 2.5 13.3 10.2 37.7 16.6 63.5 16.6 42.8 0 72.7-16.2 72.7-30.7 0-9.6-13.1-19.6-33.3-25.5-7.7-2.2-13.7-7.9-16.5-15.7-2.9-8-1.8-16.9 2.8-23.9 1.6-2.3 3.1-4.7 4.6-7 33-51.4 43.3-92.5 38.9-108.9-1.3-4.8-3.4-5.9-4-6.2-4.9-2.5-17.6 0.4-37.5 16.9-19.4 16.1-40 40.4-57.9 68.5-21.5 33.6-36.2 68-39.3 92.1-1.4 11 0.1 16.7 1.4 19.5l1.7 1.5-0.1 0.3z" fill="#9A6500" p-id="1570"></path><path d="M677.6 421.2c0 21.5 36.2 38.9 80.8 38.9 28.9 0 54.2-7.3 68.5-18.2 2.4-1.8 4.4-3.7 6.2-5.7 3.5-5.7 4.4-14.6 3-25.7-3.1-24.4-17.4-59.5-40.5-95.5-38-59.4-85.5-98.8-106.1-88.2-20.5 10.7-6.3 67.4 31.7 126.8 1.6 2.4 3.1 4.8 4.7 7.2 6.7 10 1.9 24-9.1 27.2-23.5 6.7-39.2 19.1-39.2 33.2z" fill="#FF9221" p-id="1571"></path><path d="M758.4 468.3c-22.8 0-44.3-4.3-60.7-12.2-18.3-8.8-28.3-21.2-28.3-34.9 0-17.6 16.9-33 45.1-41.2 2.6-0.7 4.6-2.8 5.7-5.6 1.1-3.1 0.7-6.5-1-9.2-1.6-2.4-3.2-4.9-4.8-7.3-31.5-49.2-47.6-97-40.9-122 2.6-9.7 8.1-14.3 12.3-16.5 13.2-6.9 32.4-0.4 55.4 18.8 20.7 17.2 42.4 42.8 61.3 72.2 23.1 36.1 38.3 72.1 41.7 98.9 1.5 12 0.5 21.7-2.9 28.8v1l-1.5 1.8-0.2 0.4-0.5 0.5c-2 2.3-4.4 4.5-7.1 6.5-16.4 12.5-43.8 20-73.6 20z m-61.2-235.1c-1.6 0-2.9 0.3-3.9 0.8-0.7 0.4-2.8 1.4-4 6.2-4.4 16.4 5.9 57.5 38.9 108.9 1.5 2.3 3 4.7 4.6 7 4.7 7 5.7 15.9 2.8 23.9-2.8 7.8-8.8 13.5-16.5 15.7-20.3 5.9-33.3 15.9-33.3 25.5 0 14.5 29.8 30.7 72.7 30.7 25.9 0 50.2-6.3 63.5-16.5 1.1-0.8 2.1-1.7 3-2.5v-0.3l1.7-1.5c1.3-2.7 2.8-8.5 1.4-19.6-3-24.1-17.7-58.5-39.3-92.1-18-28-38.5-52.3-57.9-68.5-16-13.2-27.3-17.7-33.7-17.7z" fill="#9A6500" p-id="1572"></path><path d="M694.106966 279.574258a7.2 23.9 57.779 1 0 40.438695-25.486309 7.2 23.9 57.779 1 0-40.438695 25.486309Z" fill="#FFFCC4" p-id="1573"></path><path d="M714.663917 326.089909a7.2 32.8 57.952 1 0 55.602813-34.809298 7.2 32.8 57.952 1 0-55.602813 34.809298Z" fill="#FFFCC4" p-id="1574"></path><path d="M736.686536 368.771988a7.2 36 71.014 1 0 68.083063-23.424272 7.2 36 71.014 1 0-68.083063 23.424272Z" fill="#FFFCC4" p-id="1575"></path><path d="M250.274124 366.086008a36 7.2 18.99 1 0 4.685805-13.616286 36 7.2 18.99 1 0-4.685805 13.616286Z" fill="#FFFCC4" p-id="1576"></path><path d="M273.854215 322.174896a32.8 7.2 32.046 1 0 7.640639-12.205762 32.8 7.2 32.046 1 0-7.640639 12.205762Z" fill="#FFFCC4" p-id="1577"></path><path d="M305.495639 272.903981a23.9 7.2 32.222 1 0 7.678096-12.182234 23.9 7.2 32.222 1 0-7.678096 12.182234Z" fill="#FFFCC4" p-id="1578"></path><path d="M791.5 587.9c0 124.5-122.6 177.2-273.8 177.2S244 712.4 244 587.9s122.6-245.4 273.8-245.4 273.7 120.9 273.7 245.4z" fill="#FFCAA8" p-id="1579"></path><path d="M517.8 771.8c-80.6 0-148.7-14.8-197-42.8-26.5-15.4-47-34.7-61-57.4-14.9-24.2-22.5-52.4-22.5-83.7 0-62.4 30-126 82.3-174.3 26-24.1 56-43.1 89.1-56.5 34.9-14.1 71.6-21.3 109.1-21.3s74.2 7.2 109.1 21.3c33 13.4 63 32.4 89.1 56.5 52.3 48.4 82.3 111.9 82.3 174.3 0 31.4-7.6 59.5-22.5 83.7-14 22.7-34.5 42-61 57.4-48.4 28-116.5 42.8-197 42.8z m0-422.6c-142.3 0-267.1 111.5-267.1 238.7 0 56.4 25.9 99.9 76.9 129.5 46.3 26.8 112 41 190.2 41 78.2 0 144-14.2 190.2-41 51-29.6 76.9-73.2 76.9-129.5-0.1-127.1-124.9-238.7-267.1-238.7z" fill="#9A6500" p-id="1580"></path><path d="M738.7 583.6c0 97.7-98.9 117.4-221 117.4s-221-19.6-221-117.4 98.9-177 221-177 221 79.3 221 177z" fill="#FFF8DE" p-id="1581"></path><path d="M436 625.6c0 9.8-17.4 12.6-38.8 12.6s-38.8-2.7-38.8-12.6 17.4-14.7 38.8-14.7 38.8 4.8 38.8 14.7zM579.7 625.6c0 9.8 17.4 12.6 38.8 12.6s38.8-2.7 38.8-12.6-17.4-14.7-38.8-14.7-38.8 4.8-38.8 14.7z" fill="#FF7669" p-id="1582"></path><path d="M391.6 570.2a22.2 30.2 0 1 0 44.4 0 22.2 30.2 0 1 0-44.4 0Z" fill="#201600" p-id="1583"></path><path d="M579.7 570.2a22.2 30.2 0 1 0 44.4 0 22.2 30.2 0 1 0-44.4 0Z" fill="#201600" p-id="1584"></path><path d="M530.6 582.5c0 6.5-10.8 16.1-24.1 16.1s-24.1-9.6-24.1-16.1 10.8-7.9 24.1-7.9 24.1 1.4 24.1 7.9z" fill="#593E00" p-id="1585"></path><path d="M498.1 630.2a8.4 13.5 0 1 0 16.8 0 8.4 13.5 0 1 0-16.8 0Z" fill="#FF5F49" p-id="1586"></path><path d="M702.2 398.3c0 38-85.2 68.9-190.2 68.9s-190.2-30.8-190.2-68.9 76.8-100.2 181.9-100.2 198.5 62.2 198.5 100.2z" fill="#FF9221" p-id="1587"></path><path d="M512 472.2c-51.4 0-99.8-7.3-136.2-20.5-38.1-13.8-59-32.7-59-53.4 0-21.4 20.6-47.7 53.9-68.6 37.6-23.6 84.8-36.6 133-36.6 48 0 99.4 13.3 141.1 36.5 38.5 21.4 62.5 47.8 62.5 68.7 0 20.7-21 39.6-59 53.4-36.5 13.2-84.9 20.5-136.3 20.5z m-8.4-169.1c-46.3 0-91.6 12.5-127.7 35.1-29.9 18.8-49.2 42.4-49.2 60.1 0 15.9 19.1 31.9 52.4 44 35.4 12.8 82.6 19.9 132.8 19.9 50.2 0 97.4-7.1 132.8-19.9 33.3-12.1 52.4-28.1 52.4-44 0-16.8-23-40.9-57.3-60-40.2-22.3-89.8-35.2-136.2-35.2z" fill="#9A6500" p-id="1588"></path><path d="M471.5 421a43.4 10.6 0 1 0 86.8 0 43.4 10.6 0 1 0-86.8 0Z" fill="#754C24" p-id="1589"></path><path d="M514.9 453.7c-18 0-32.7-14.6-32.7-32.7h10c0 12.5 10.2 22.7 22.7 22.7s22.7-10.2 22.7-22.7h10c-0.1 18-14.7 32.7-32.7 32.7z" fill="#FEFFD3" p-id="1590"></path><path d="M477 798.4l3-18.6c0.4-2.2-0.4-4.5-2-6.1l-13.7-13c-4.1-3.9-1.9-11 3.7-11.9l18.6-3c2.2-0.3 4.2-1.7 5.1-3.8l8.1-17c2.5-5.2 9.8-5.3 12.4-0.1l8.6 16.8c1 2 3 3.4 5.3 3.8l18.7 2.4c5.7 0.7 8 7.7 4 11.7l-13.4 13.3c-1.6 1.6-2.3 3.9-1.9 6.2l3.4 18.6c1 5.6-4.8 10-9.9 7.4l-16.8-8.6c-2-1.1-4.5-1-6.4 0.1l-16.6 8.9c-5.1 2.8-11.1-1.4-10.2-7.1z" fill="#FFFEBB" p-id="1591"></path><path d="M483.8 811.6c-2.4 0-4.8-0.7-6.9-2.1-3.8-2.7-5.8-7.2-5.1-11.9v-0.1l3-18.6c0.1-0.5-0.1-1.1-0.5-1.4l-13.7-13c-3.4-3.2-4.6-8-3.2-12.4 1.4-4.5 5.1-7.7 9.7-8.4l18.7-3c0.5-0.1 0.9-0.4 1.1-0.8l8.1-17.1c2-4.3 6.2-6.9 11-6.9 4.7 0 8.8 2.6 10.9 6.8l8.5 16.7c0.2 0.5 0.8 0.8 1.4 1l18.6 2.4c4.6 0.6 8.4 3.7 9.9 8.2 1.5 4.4 0.4 9.2-2.9 12.5L539 776.6c-0.2 0.2-0.6 0.8-0.5 1.5l3.4 18.6c0.8 4.6-1 9.2-4.7 12-3.7 2.8-8.6 3.2-12.7 1.1l-16.8-8.6c-0.5-0.3-1-0.3-1.4 0l-0.1 0.1-16.6 8.9c-1.8 0.9-3.8 1.4-5.8 1.4z m-1.6-12.4c-0.1 0.9 0.4 1.4 0.7 1.7 0.4 0.3 1 0.5 1.7 0.1l16.6-8.9c3.5-2 7.8-2 11.4-0.1l16.7 8.6c0.7 0.4 1.3 0.1 1.7-0.1 0.3-0.2 0.8-0.8 0.7-1.7l-3.4-18.6c-0.7-3.8 0.5-7.8 3.3-10.7l0.1-0.1 13.4-13.3c0.6-0.6 0.5-1.3 0.4-1.7-0.1-0.4-0.5-1-1.3-1.1l-18.8-2.5c-3.9-0.6-7.4-3.1-9.1-6.6l-8.6-16.8c-0.3-0.7-0.8-1-1.5-1-0.4 0-1.1 0.1-1.5 1l-8.1 17c-1.7 3.6-5.1 6.2-9.1 6.8l-18.6 3c-0.9 0.1-1.2 0.8-1.3 1.2-0.1 0.4-0.2 1.1 0.4 1.7l13.7 13c2.9 2.8 4.3 6.8 3.6 10.7l-3.1 18.4z" fill="#9A6500" p-id="1592"></path></svg>